<svg width="24" height="24" viewBox="0 0 24 24" fill="none" xmlns="http://www.w3.org/2000/svg">
<circle cx="12" cy="12" r="12" fill="#B21D1D"/>
<path d="M19 12.0001C19 12.1327 18.9473 12.2599 18.8536 12.3537C18.7598 12.4475 18.6326 12.5001 18.5 12.5001H16.8088L14.4475 17.2239C14.4059 17.307 14.342 17.3768 14.263 17.4256C14.184 17.4744 14.0929 17.5002 14 17.5001H13.975C13.878 17.4953 13.7845 17.4624 13.7059 17.4054C13.6274 17.3483 13.5671 17.2696 13.5325 17.1789L9.95937 7.79763L7.955 12.207C7.91529 12.2944 7.85127 12.3685 7.77059 12.4205C7.68991 12.4724 7.59597 12.5001 7.5 12.5001H5.5C5.36739 12.5001 5.24021 12.4475 5.14645 12.3537C5.05268 12.2599 5 12.1327 5 12.0001C5 11.8675 5.05268 11.7403 5.14645 11.6466C5.24021 11.5528 5.36739 11.5001 5.5 11.5001H7.17812L9.545 6.29326C9.5858 6.2034 9.65229 6.12763 9.73607 6.07549C9.81985 6.02335 9.91719 5.99717 10.0158 6.00024C10.1145 6.00332 10.21 6.03551 10.2904 6.09277C10.3707 6.15003 10.4324 6.22979 10.4675 6.32201L14.0619 15.7595L16.0525 11.7776C16.0939 11.6943 16.1577 11.6242 16.2368 11.5752C16.3158 11.5262 16.407 11.5002 16.5 11.5001H18.5C18.6326 11.5001 18.7598 11.5528 18.8536 11.6466C18.9473 11.7403 19 11.8675 19 12.0001Z" fill="white"/>
</svg>
