<svg width="24" height="24" viewBox="0 0 24 24" fill="none" xmlns="http://www.w3.org/2000/svg">
<path d="M18.0157 8.57083C17.8976 8.63403 17.7602 8.64618 17.6335 8.60462C17.5068 8.56307 17.4013 8.4712 17.3401 8.34921C16.8616 7.37167 16.1372 6.54546 15.2432 5.95739C15.1875 5.92105 15.1393 5.87372 15.1013 5.8181C15.0632 5.76248 15.0362 5.69967 15.0216 5.63323C15.0071 5.5668 15.0053 5.49806 15.0165 5.43093C15.0276 5.36379 15.0514 5.29959 15.0866 5.24198C15.1217 5.18437 15.1675 5.13448 15.2213 5.09516C15.2751 5.05583 15.3358 5.02785 15.4 5.01281C15.4643 4.99777 15.5308 4.99596 15.5957 5.00748C15.6606 5.019 15.7227 5.04364 15.7784 5.07997C16.8203 5.76981 17.6664 6.73343 18.23 7.87227C18.2911 7.99431 18.3028 8.13644 18.2627 8.26743C18.2225 8.39842 18.1336 8.50755 18.0157 8.57083ZM6.21597 8.62915C6.30782 8.62911 6.39789 8.60299 6.47636 8.55362C6.55482 8.50425 6.61866 8.43354 6.66091 8.34921C7.13945 7.37167 7.86377 6.54546 8.75777 5.95739C8.87029 5.884 8.95001 5.7674 8.97939 5.63323C9.00877 5.49907 8.98541 5.35833 8.91444 5.24198C8.84347 5.12563 8.73071 5.04319 8.60096 5.01281C8.47122 4.98243 8.33511 5.00659 8.22259 5.07997C7.18068 5.76981 6.33465 6.73343 5.77103 7.87227C5.73145 7.95128 5.7122 8.03949 5.71514 8.12842C5.71807 8.21734 5.74309 8.30399 5.78778 8.38002C5.83248 8.45606 5.89535 8.51891 5.97034 8.56255C6.04534 8.60618 6.12993 8.62912 6.21597 8.62915ZM17.8784 15.3646C17.9672 15.5221 18.0143 15.7011 18.0149 15.8834C18.0155 16.0657 17.9696 16.2449 17.8819 16.4031C17.7941 16.5612 17.6675 16.6926 17.515 16.784C17.3624 16.8754 17.1893 16.9236 17.013 16.9238H14.4561C14.3411 17.5097 14.0336 18.0365 13.5859 18.4149C13.1382 18.7933 12.5778 19 11.9996 19C11.4213 19 10.8609 18.7933 10.4132 18.4149C9.96549 18.0365 9.65806 17.5097 9.543 16.9238H6.98616C6.80995 16.9234 6.63695 16.875 6.48457 16.7835C6.3322 16.692 6.20583 16.5606 6.11821 16.4025C6.03059 16.2444 5.9848 16.0653 5.98546 15.883C5.98612 15.7008 6.03321 15.522 6.12197 15.3646C6.68661 14.357 6.98616 12.9242 6.98616 11.2212C6.98616 9.8463 7.51436 8.5277 8.45455 7.55549C9.39475 6.58328 10.6699 6.03709 11.9996 6.03709C13.3292 6.03709 14.6044 6.58328 15.5446 7.55549C16.4848 8.5277 17.013 9.8463 17.013 11.2212C17.013 12.9236 17.3125 14.3563 17.8784 15.3646ZM13.4171 16.9238H10.582C10.6859 17.2266 10.8779 17.4888 11.1318 17.6742C11.3856 17.8597 11.6888 17.9592 11.9996 17.9592C12.3104 17.9592 12.6135 17.8597 12.8673 17.6742C13.1212 17.4888 13.3132 17.2266 13.4171 16.9238ZM17.013 15.8869C16.3462 14.703 16.0103 13.1335 16.0103 11.2212C16.0103 10.1213 15.5877 9.0664 14.8356 8.28863C14.0834 7.51086 13.0633 7.07392 11.9996 7.07392C10.9359 7.07392 9.91571 7.51086 9.16355 8.28863C8.4114 9.0664 7.98884 10.1213 7.98884 11.2212C7.98884 13.1342 7.65169 14.7037 6.98616 15.8869H17.013Z"  fill="white"/>
</svg>
