<svg width="60" height="48" viewBox="0 0 60 48" fill="none" xmlns="http://www.w3.org/2000/svg">
<path d="M29.9998 15.0002L14.3811 30.8814C13.864 31.4521 13.5862 32.1998 13.6051 32.9696C13.6241 33.7395 13.9384 34.4726 14.4829 35.0171C15.0274 35.5617 15.7605 35.8759 16.5304 35.8949C17.3002 35.9138 18.0479 35.636 18.6186 35.1189L37.2373 16.2377C38.2715 15.0963 38.8271 13.601 38.7892 12.0613C38.7513 10.5216 38.1228 9.05542 37.0337 7.96635C35.9446 6.87727 34.4784 6.24871 32.9387 6.2108C31.399 6.17289 29.9037 6.72854 28.7623 7.7627L10.1436 26.6439C8.4578 28.3297 7.51074 30.6161 7.51074 33.0002C7.51074 35.3843 8.4578 37.6707 10.1436 39.3564C11.8294 41.0422 14.1158 41.9893 16.4998 41.9893C18.8839 41.9893 21.1703 41.0422 22.8561 39.3564L38.2498 24.0002" stroke="#999999" stroke-width="1.5" stroke-linecap="round" stroke-linejoin="round"/>
<circle cx="48" cy="12" r="12" fill="#B21D1D"/>
<path d="M42.5 12H53.5" stroke="white" stroke-width="1.5" stroke-linecap="round" stroke-linejoin="round"/>
<path d="M48 6.5V17.5" stroke="white" stroke-width="1.5" stroke-linecap="round" stroke-linejoin="round"/>
</svg>
