<svg width="24" height="24" viewBox="0 0 24 24" fill="none" xmlns="http://www.w3.org/2000/svg">
<path d="M20.9999 12.0004C20.9999 12.1993 20.9209 12.3901 20.7803 12.5307C20.6396 12.6714 20.4488 12.7504 20.2499 12.7504H11.9999C11.801 12.7504 11.6103 12.6714 11.4696 12.5307C11.3289 12.3901 11.2499 12.1993 11.2499 12.0004C11.2499 11.8015 11.3289 11.6107 11.4696 11.4701C11.6103 11.3294 11.801 11.2504 11.9999 11.2504H20.2499C20.4488 11.2504 20.6396 11.3294 20.7803 11.4701C20.9209 11.6107 20.9999 11.8015 20.9999 12.0004ZM11.9999 6.75042H20.2499C20.4488 6.75042 20.6396 6.6714 20.7803 6.53075C20.9209 6.39009 20.9999 6.19933 20.9999 6.00042C20.9999 5.8015 20.9209 5.61074 20.7803 5.47009C20.6396 5.32943 20.4488 5.25042 20.2499 5.25042H11.9999C11.801 5.25042 11.6103 5.32943 11.4696 5.47009C11.3289 5.61074 11.2499 5.8015 11.2499 6.00042C11.2499 6.19933 11.3289 6.39009 11.4696 6.53075C11.6103 6.6714 11.801 6.75042 11.9999 6.75042ZM20.2499 17.2504H11.9999C11.801 17.2504 11.6103 17.3294 11.4696 17.4701C11.3289 17.6107 11.2499 17.8015 11.2499 18.0004C11.2499 18.1993 11.3289 18.3901 11.4696 18.5307C11.6103 18.6714 11.801 18.7504 11.9999 18.7504H20.2499C20.4488 18.7504 20.6396 18.6714 20.7803 18.5307C20.9209 18.3901 20.9999 18.1993 20.9999 18.0004C20.9999 17.8015 20.9209 17.6107 20.7803 17.4701C20.6396 17.3294 20.4488 17.2504 20.2499 17.2504ZM7.7193 3.96979L5.24993 6.4401L4.28055 5.46979C4.13982 5.32906 3.94895 5.25 3.74993 5.25C3.55091 5.25 3.36003 5.32906 3.2193 5.46979C3.07857 5.61052 2.99951 5.80139 2.99951 6.00042C2.99951 6.19944 3.07857 6.39031 3.2193 6.53104L4.7193 8.03104C4.78896 8.10077 4.87167 8.15609 4.96272 8.19384C5.05377 8.23158 5.15137 8.25101 5.24993 8.25101C5.34849 8.25101 5.44609 8.23158 5.53713 8.19384C5.62818 8.15609 5.7109 8.10077 5.78055 8.03104L8.78055 5.03104C8.92128 4.89031 9.00035 4.69944 9.00035 4.50042C9.00035 4.30139 8.92128 4.11052 8.78055 3.96979C8.63982 3.82906 8.44895 3.75 8.24993 3.75C8.05091 3.75 7.86003 3.82906 7.7193 3.96979ZM7.7193 9.96979L5.24993 12.4401L4.28055 11.4698C4.13982 11.3291 3.94895 11.25 3.74993 11.25C3.55091 11.25 3.36003 11.3291 3.2193 11.4698C3.07857 11.6105 2.99951 11.8014 2.99951 12.0004C2.99951 12.099 3.01892 12.1965 3.05663 12.2876C3.09435 12.3786 3.14962 12.4614 3.2193 12.531L4.7193 14.031C4.78896 14.1008 4.87167 14.1561 4.96272 14.1938C5.05377 14.2316 5.15137 14.251 5.24993 14.251C5.34849 14.251 5.44609 14.2316 5.53713 14.1938C5.62818 14.1561 5.7109 14.1008 5.78055 14.031L8.78055 11.031C8.92128 10.8903 9.00035 10.6994 9.00035 10.5004C9.00035 10.3014 8.92128 10.1105 8.78055 9.96979C8.63982 9.82906 8.44895 9.75 8.24993 9.75C8.05091 9.75 7.86003 9.82906 7.7193 9.96979ZM7.7193 15.9698L5.24993 18.4401L4.28055 17.4698C4.21087 17.4001 4.12815 17.3448 4.0371 17.3071C3.94606 17.2694 3.84847 17.25 3.74993 17.25C3.65138 17.25 3.5538 17.2694 3.46276 17.3071C3.37171 17.3448 3.28899 17.4001 3.2193 17.4698C3.14962 17.5395 3.09435 17.6222 3.05663 17.7132C3.01892 17.8043 2.99951 17.9019 2.99951 18.0004C2.99951 18.099 3.01892 18.1965 3.05663 18.2876C3.09435 18.3786 3.14962 18.4614 3.2193 18.531L4.7193 20.031C4.78896 20.1008 4.87167 20.1561 4.96272 20.1938C5.05377 20.2316 5.15137 20.251 5.24993 20.251C5.34849 20.251 5.44609 20.2316 5.53713 20.1938C5.62818 20.1561 5.7109 20.1008 5.78055 20.031L8.78055 17.031C8.92128 16.8903 9.00035 16.6994 9.00035 16.5004C9.00035 16.3014 8.92128 16.1105 8.78055 15.9698C8.63982 15.8291 8.44895 15.75 8.24993 15.75C8.05091 15.75 7.86003 15.8291 7.7193 15.9698Z" fill="white"/>
</svg>
