<svg width="500" height="500" viewBox="0 0 500 500" fill="none" xmlns="http://www.w3.org/2000/svg">
<path d="M500 382.4H0V382.65H500V382.4Z" fill="#EBEBEB"/>
<path d="M449.9 398.49H416.78V398.74H449.9V398.49Z" fill="#EBEBEB"/>
<path d="M301.44 398.619H292.75V398.869H301.44V398.619Z" fill="#EBEBEB"/>
<path d="M415.77 389.211H354.33V389.461H415.77V389.211Z" fill="#EBEBEB"/>
<path d="M225.14 395.109H212.45V395.359H225.14V395.109Z" fill="#EBEBEB"/>
<path d="M203.55 395.109H166.72V395.359H203.55V395.109Z" fill="#EBEBEB"/>
<path d="M77.89 390.891H52.46V391.141H77.89V390.891Z" fill="#EBEBEB"/>
<path d="M158.78 390.891H83.89V391.141H158.78V390.891Z" fill="#EBEBEB"/>
<path d="M237 337.8H43.91C42.3974 337.797 40.9476 337.195 39.8789 336.124C38.8102 335.053 38.21 333.603 38.21 332.09V60.66C38.2232 59.156 38.8292 57.718 39.8965 56.6582C40.9637 55.5985 42.406 55.0026 43.91 55H237C238.514 55 239.967 55.6016 241.038 56.6724C242.108 57.7433 242.71 59.1956 242.71 60.71V332.09C242.71 333.604 242.108 335.057 241.038 336.128C239.967 337.198 238.514 337.8 237 337.8ZM43.91 55.2C42.4637 55.2026 41.0775 55.7791 40.0557 56.8027C39.0339 57.8264 38.46 59.2136 38.46 60.66V332.09C38.46 333.536 39.0339 334.924 40.0557 335.947C41.0775 336.971 42.4637 337.547 43.91 337.55H237C238.447 337.547 239.835 336.971 240.858 335.948C241.881 334.924 242.457 333.537 242.46 332.09V60.66C242.457 59.2127 241.881 57.8255 240.858 56.8021C239.835 55.7787 238.447 55.2026 237 55.2H43.91Z" fill="#EBEBEB"/>
<path d="M453.31 337.8H260.21C258.696 337.797 257.246 337.195 256.175 336.125C255.105 335.054 254.503 333.604 254.5 332.09V60.66C254.516 59.1551 255.124 57.7171 256.193 56.6576C257.262 55.5981 258.705 55.0025 260.21 55H453.31C454.812 55.0052 456.252 55.6022 457.317 56.6617C458.382 57.7212 458.987 59.1578 459 60.66V332.09C459 333.601 458.401 335.05 457.335 336.121C456.268 337.191 454.821 337.795 453.31 337.8ZM260.21 55.2C258.763 55.2026 257.375 55.7787 256.352 56.8021C255.329 57.8255 254.753 59.2127 254.75 60.66V332.09C254.753 333.537 255.329 334.924 256.352 335.948C257.375 336.971 258.763 337.547 260.21 337.55H453.31C454.757 337.547 456.145 336.971 457.168 335.948C458.191 334.924 458.767 333.537 458.77 332.09V60.66C458.767 59.2127 458.191 57.8255 457.168 56.8021C456.145 55.7787 454.757 55.2026 453.31 55.2H260.21Z" fill="#EBEBEB"/>
<path d="M190.78 249.51L433.82 249.51V71.9798L190.78 71.9798L190.78 249.51Z" fill="#E6E6E6"/>
<path d="M180.04 249.51L431.33 249.51V71.9798L180.04 71.9798L180.04 249.51Z" fill="#F0F0F0"/>
<path d="M416.28 234.47V87.0195L195.07 87.0195V234.47H416.28Z" fill="#FAFAFA"/>
<path d="M362.51 234.46L312.15 87.0195H264.06L314.42 234.46H362.51Z" fill="white"/>
<path d="M304.09 234.46L253.73 87.0195H234.99L285.35 234.46H304.09Z" fill="white"/>
<path d="M196.99 234.47V87.0195H195.08V234.47H196.99Z" fill="#E6E6E6"/>
<path d="M64.57 201.221H150.39L150.39 79.5507L64.57 79.5507L64.57 201.221Z" fill="#E0E0E0"/>
<path d="M58.5 201.221H146.96L146.96 79.5507L58.5 79.5507L58.5 201.221Z" fill="#F5F5F5"/>
<path d="M138.23 191.621V89.1309H67.23V191.621H138.23Z" fill="white"/>
<path d="M97.93 286.4C104.3 270.68 119.45 264.83 124.69 254.9C131.54 241.9 131.5 222.39 125.69 215.36C120.61 209.24 103.81 250.6 101.92 255.22C96.7348 267.689 93.4905 280.879 92.3 294.33C92.44 284.62 92.57 275.7 92.68 268.82C93.04 246.38 93.48 239.16 93.68 236.94C94.38 235.85 95.21 234.59 95.68 233.94C99.75 228.21 108.77 221.38 113.28 213.05C119.86 200.88 118.8 186.32 114.18 180.9C109.35 175.23 100.82 188.63 96.29 201.9C91.76 215.17 93.69 227.9 92.42 238.9C92.16 241.06 91.88 249.27 91.63 260.67C90.25 248.41 87.51 240.2 82.44 232.54C76.2 223.13 70.81 211.67 65.67 213.15C60.53 214.63 63.29 229.8 67.36 240.44C71 249.92 88.85 259.38 91.48 267C91.17 282.44 90.89 302 90.7 320.23C89.29 310.82 90.26 310.03 84.48 295.62C81.05 287.06 67 276.5 65.3 282.38C63.6 288.26 66.17 299.38 71.48 307.18C75.77 313.46 85.28 313.45 87.48 317.35C87.99 318.26 89.69 321.75 90.66 323.75C90.43 345.99 90.33 365.63 90.44 372.32L91.36 372.39C91.36 370.66 91.43 359.39 91.61 344.39C93.92 336.39 109.47 331.78 114.27 323.49C119.27 314.82 122.91 304.7 120.75 297.93C118.95 292.28 104.75 299.93 99.04 309.32C95.21 315.56 92.87 322.21 91.78 331.15C91.91 320.95 92.06 309.99 92.2 299.65C93.37 297.05 96 291.11 97.93 286.4Z" fill="#E6E6E6"/>
<path d="M107.06 382.4H74.38C73.5164 382.399 72.6796 382.1 72.0109 381.553C71.3422 381.007 70.8827 380.246 70.71 379.4L68.39 368H113.06L110.74 379.43C110.557 380.271 110.093 381.024 109.424 381.564C108.754 382.104 107.92 382.399 107.06 382.4Z" fill="#F0F0F0"/>
<path d="M114 372.391H67.45C66.9108 372.389 66.3909 372.19 65.989 371.831C65.5871 371.471 65.3312 370.977 65.27 370.441L64.27 361.991C64.2363 361.684 64.2675 361.374 64.3617 361.08C64.4558 360.786 64.6107 360.515 64.8163 360.285C65.0218 360.055 65.2735 359.871 65.555 359.744C65.8365 359.618 66.1414 359.552 66.45 359.551H114.89C115.199 359.55 115.505 359.615 115.787 359.741C116.069 359.867 116.322 360.051 116.527 360.282C116.733 360.512 116.888 360.784 116.982 361.078C117.075 361.373 117.105 361.684 117.07 361.991L116.07 370.441C116.012 370.958 115.771 371.438 115.392 371.795C115.013 372.152 114.52 372.363 114 372.391Z" fill="#F0F0F0"/>
<path d="M405.63 375.109H415.62V267.619H405.63V375.109Z" fill="#F0F0F0"/>
<path d="M202.06 382.27H411.79V375.11H202.06V382.27Z" fill="#F0F0F0"/>
<path d="M405.64 267.619H198.23V375.109H405.64V267.619Z" fill="#F5F5F5"/>
<path d="M407.99 267.619H418.31V260.839H407.99V267.619Z" fill="#E0E0E0"/>
<path d="M407.99 260.84H195.54V267.62H407.99V260.84Z" fill="#EBEBEB"/>
<path d="M390.75 314H213.11C210.988 314 208.953 313.157 207.453 311.657C205.953 310.157 205.11 308.122 205.11 306V283C205.11 280.878 205.953 278.843 207.453 277.343C208.953 275.843 210.988 275 213.11 275H390.75C392.872 275 394.907 275.843 396.407 277.343C397.907 278.843 398.75 280.878 398.75 283V306C398.75 308.122 397.907 310.157 396.407 311.657C394.907 313.157 392.872 314 390.75 314ZM213.11 277C211.519 277 209.993 277.632 208.867 278.757C207.742 279.883 207.11 281.409 207.11 283V306C207.11 307.591 207.742 309.117 208.867 310.243C209.993 311.368 211.519 312 213.11 312H390.75C392.341 312 393.867 311.368 394.993 310.243C396.118 309.117 396.75 307.591 396.75 306V283C396.75 281.409 396.118 279.883 394.993 278.757C393.867 277.632 392.341 277 390.75 277H213.11Z" fill="white"/>
<path d="M390.75 362.189H213.11C210.988 362.189 208.953 361.347 207.453 359.846C205.953 358.346 205.11 356.311 205.11 354.189V331.189C205.11 329.068 205.953 327.033 207.453 325.533C208.953 324.032 210.988 323.189 213.11 323.189H390.75C392.872 323.189 394.907 324.032 396.407 325.533C397.907 327.033 398.75 329.068 398.75 331.189V354.189C398.75 356.311 397.907 358.346 396.407 359.846C394.907 361.347 392.872 362.189 390.75 362.189ZM213.11 325.109C211.519 325.109 209.993 325.742 208.867 326.867C207.742 327.992 207.11 329.518 207.11 331.109V354.109C207.11 355.701 207.742 357.227 208.867 358.352C209.993 359.477 211.519 360.109 213.11 360.109H390.75C392.341 360.109 393.867 359.477 394.993 358.352C396.118 357.227 396.75 355.701 396.75 354.109V331.109C396.75 329.518 396.118 327.992 394.993 326.867C393.867 325.742 392.341 325.109 390.75 325.109H213.11Z" fill="white"/>
<path d="M350.38 298H253.48C252.792 298 252.132 297.727 251.645 297.242C251.158 296.756 250.883 296.098 250.88 295.41V293.51C250.883 292.822 251.158 292.163 251.645 291.678C252.132 291.192 252.792 290.92 253.48 290.92H350.38C351.068 290.92 351.728 291.192 352.215 291.678C352.702 292.163 352.977 292.822 352.98 293.51V295.41C352.977 296.098 352.702 296.756 352.215 297.242C351.728 297.727 351.068 298 350.38 298ZM253.48 293C253.323 293.002 253.174 293.065 253.062 293.175C252.95 293.285 252.885 293.433 252.88 293.59V295.49C252.885 295.646 252.95 295.795 253.062 295.905C253.174 296.015 253.323 296.077 253.48 296.08H350.38C350.537 296.08 350.689 296.018 350.801 295.908C350.913 295.797 350.977 295.647 350.98 295.49V293.59C350.977 293.433 350.913 293.282 350.801 293.172C350.689 293.062 350.537 293 350.38 293H253.48Z" fill="white"/>
<path d="M350.38 346.189H253.48C252.792 346.189 252.132 345.917 251.645 345.431C251.158 344.946 250.883 344.287 250.88 343.599V341.699C250.883 341.012 251.158 340.353 251.645 339.867C252.132 339.382 252.792 339.109 253.48 339.109H350.38C351.068 339.109 351.728 339.382 352.215 339.867C352.702 340.353 352.977 341.012 352.98 341.699V343.599C352.977 344.287 352.702 344.946 352.215 345.431C351.728 345.917 351.068 346.189 350.38 346.189ZM253.48 341.109C253.323 341.112 253.174 341.175 253.062 341.284C252.95 341.394 252.885 341.543 252.88 341.699V343.599C252.885 343.756 252.95 343.905 253.062 344.014C253.174 344.124 253.323 344.187 253.48 344.189H350.38C350.537 344.189 350.689 344.128 350.801 344.017C350.913 343.907 350.977 343.757 350.98 343.599V341.699C350.977 341.542 350.913 341.392 350.801 341.282C350.689 341.171 350.537 341.109 350.38 341.109H253.48Z" fill="white"/>
<path d="M245 427.56C352.082 427.56 438.89 422.492 438.89 416.24C438.89 409.988 352.082 404.92 245 404.92C137.917 404.92 51.11 409.988 51.11 416.24C51.11 422.492 137.917 427.56 245 427.56Z" fill="#F5F5F5"/>
<path d="M374.79 167.753L374.41 173.641L375.408 173.705L375.788 167.817L374.79 167.753Z" fill="#B21D1D"/>
<path d="M376.308 143.842L375.06 163.191L376.058 163.256L377.306 143.906L376.308 143.842Z" fill="#B21D1D"/>
<path d="M364.44 115.741H246.89C243.872 115.794 240.981 116.969 238.783 119.038C236.584 121.107 235.236 123.921 235 126.931L219.81 361.431C219.699 362.868 219.888 364.313 220.365 365.673C220.843 367.034 221.597 368.28 222.582 369.333C223.566 370.387 224.759 371.224 226.084 371.791C227.41 372.359 228.838 372.645 230.28 372.631H347.81C350.834 372.581 353.73 371.405 355.934 369.334C358.138 367.264 359.492 364.446 359.73 361.431L374.91 126.931C375.021 125.494 374.832 124.05 374.355 122.69C373.877 121.33 373.122 120.084 372.138 119.032C371.153 117.979 369.96 117.143 368.635 116.577C367.31 116.01 365.881 115.725 364.44 115.741Z" fill="#B21D1D"/>
<path opacity="0.7" d="M360.71 115.741H246.89C243.872 115.794 240.981 116.969 238.783 119.038C236.584 121.107 235.236 123.921 235 126.931L219.81 361.431C219.699 362.868 219.888 364.313 220.365 365.673C220.843 367.034 221.597 368.28 222.582 369.333C223.566 370.387 224.759 371.224 226.084 371.791C227.41 372.359 228.838 372.645 230.28 372.631H344.08C347.104 372.581 350 371.405 352.204 369.334C354.408 367.264 355.762 364.446 356 361.431L371.18 126.931C371.291 125.494 371.102 124.05 370.625 122.69C370.147 121.33 369.392 120.084 368.408 119.032C367.423 117.979 366.23 117.143 364.905 116.577C363.58 116.01 362.151 115.725 360.71 115.741Z" fill="white"/>
<path d="M351.11 355.302H225.91C225.442 355.303 224.978 355.208 224.548 355.022C224.118 354.837 223.731 354.565 223.411 354.224C223.09 353.882 222.843 353.479 222.684 353.038C222.526 352.597 222.46 352.129 222.49 351.662L236.23 139.462C236.286 138.595 236.669 137.782 237.303 137.188C237.936 136.594 238.772 136.262 239.64 136.262H364.85C365.319 136.262 365.782 136.359 366.212 136.545C366.642 136.732 367.03 137.004 367.35 137.346C367.671 137.689 367.918 138.093 368.076 138.534C368.234 138.975 368.3 139.444 368.27 139.912L354.53 352.102C354.474 352.97 354.089 353.784 353.454 354.379C352.818 354.974 351.98 355.304 351.11 355.302Z" fill="white"/>
<path d="M323.29 129.322H277.78C277.546 129.324 277.314 129.277 277.099 129.185C276.883 129.092 276.69 128.956 276.53 128.785C276.37 128.614 276.248 128.412 276.17 128.191C276.093 127.97 276.062 127.735 276.08 127.502C276.126 127.017 276.348 126.565 276.703 126.232C277.058 125.899 277.523 125.706 278.01 125.692H323.52C323.754 125.688 323.986 125.733 324.201 125.825C324.416 125.916 324.61 126.051 324.77 126.221C324.93 126.392 325.052 126.593 325.13 126.814C325.207 127.034 325.238 127.269 325.22 127.502C325.176 127.988 324.956 128.442 324.6 128.778C324.245 129.113 323.779 129.306 323.29 129.322Z" fill="white"/>
<path d="M287.77 364.21C287.697 365.409 287.172 366.535 286.302 367.362C285.432 368.19 284.281 368.657 283.08 368.67C282.503 368.675 281.932 368.562 281.401 368.336C280.87 368.111 280.391 367.779 279.995 367.36C279.598 366.942 279.291 366.446 279.094 365.904C278.898 365.362 278.814 364.786 278.85 364.21C278.926 363.013 279.451 361.889 280.321 361.064C281.191 360.239 282.341 359.773 283.54 359.76C284.116 359.753 284.688 359.866 285.218 360.09C285.749 360.314 286.228 360.645 286.625 361.063C287.022 361.481 287.329 361.976 287.526 362.517C287.723 363.059 287.806 363.635 287.77 364.21Z" fill="white"/>
<path opacity="0.2" d="M337.47 195H230.56L223.76 299.9H337.47C340.437 299.895 343.281 298.714 345.38 296.617C347.479 294.52 348.662 291.677 348.67 288.71V206.23C348.673 203.256 347.494 200.403 345.394 198.297C343.294 196.191 340.444 195.005 337.47 195Z" fill="#B21D1D"/>
<path d="M327.51 185.709H196.49C190.304 185.709 185.29 190.723 185.29 196.909V279.419C185.29 285.605 190.304 290.619 196.49 290.619H327.51C333.696 290.619 338.71 285.605 338.71 279.419V196.909C338.71 190.723 333.696 185.709 327.51 185.709Z" fill="#B21D1D"/>
<path d="M181.71 184.499C181.448 184.498 181.196 184.394 181.01 184.209L179.21 182.419C179.022 182.231 178.916 181.975 178.916 181.709C178.916 181.443 179.022 181.187 179.21 180.999C179.398 180.811 179.654 180.705 179.92 180.705C180.186 180.705 180.442 180.811 180.63 180.999L182.42 182.799C182.606 182.987 182.711 183.24 182.711 183.504C182.711 183.768 182.606 184.022 182.42 184.209C182.327 184.302 182.216 184.375 182.094 184.425C181.972 184.475 181.842 184.5 181.71 184.499Z" fill="#B21D1D"/>
<path d="M179 190.779H176.47C176.205 190.779 175.95 190.674 175.763 190.486C175.575 190.299 175.47 190.045 175.47 189.779C175.47 189.514 175.575 189.26 175.763 189.072C175.95 188.885 176.205 188.779 176.47 188.779H179C179.265 188.779 179.52 188.885 179.707 189.072C179.895 189.26 180 189.514 180 189.779C180 190.045 179.895 190.299 179.707 190.486C179.52 190.674 179.265 190.779 179 190.779Z" fill="#B21D1D"/>
<path d="M188.08 181.8C187.826 181.8 187.582 181.704 187.396 181.532C187.211 181.359 187.098 181.122 187.08 180.87L186.9 178.34C186.89 178.208 186.907 178.076 186.949 177.951C186.99 177.826 187.056 177.711 187.143 177.611C187.229 177.512 187.334 177.43 187.452 177.372C187.57 177.313 187.699 177.278 187.83 177.27C188.094 177.253 188.353 177.342 188.552 177.516C188.75 177.69 188.872 177.936 188.89 178.2L189.08 180.73C189.089 180.861 189.073 180.993 189.031 181.118C188.99 181.243 188.924 181.358 188.837 181.458C188.751 181.557 188.646 181.639 188.528 181.697C188.41 181.756 188.281 181.791 188.15 181.8H188.08Z" fill="#B21D1D"/>
<path d="M273.19 279.83L313.42 320.05V279.83H273.19Z" fill="#B21D1D"/>
<path d="M284.22 262.21L282.22 253.72C281.715 251.488 281.715 249.172 282.22 246.94L285 234.85C286.137 229.694 285.522 224.307 283.25 219.541C280.978 214.775 277.181 210.903 272.46 208.54C272.549 208.317 272.625 208.09 272.69 207.86C272.854 207.126 272.872 206.368 272.743 205.627C272.614 204.887 272.341 204.179 271.938 203.545C271.536 202.91 271.012 202.361 270.397 201.928C269.782 201.496 269.088 201.189 268.355 201.025C267.622 200.861 266.863 200.843 266.123 200.972C265.382 201.101 264.674 201.374 264.04 201.777C263.405 202.179 262.856 202.703 262.423 203.318C261.991 203.933 261.684 204.626 261.52 205.36C261.47 205.594 261.44 205.831 261.43 206.07C256.152 206.194 251.067 208.075 246.979 211.415C242.891 214.755 240.034 219.363 238.86 224.51L236.15 236.61C235.652 238.838 234.661 240.926 233.25 242.72L227.86 249.57C227.333 250.242 226.984 251.036 226.847 251.879C226.709 252.722 226.788 253.586 227.074 254.391C227.361 255.195 227.846 255.914 228.485 256.481C229.125 257.047 229.897 257.442 230.73 257.63L278.23 268.27C279.06 268.449 279.923 268.416 280.737 268.174C281.551 267.932 282.291 267.488 282.888 266.884C283.485 266.28 283.921 265.535 284.153 264.718C284.386 263.901 284.409 263.038 284.22 262.21Z" fill="white"/>
<path d="M248.35 264.83C247.989 264.75 247.613 264.761 247.257 264.861C246.901 264.961 246.575 265.148 246.308 265.404C246.041 265.66 245.841 265.978 245.726 266.329C245.612 266.681 245.585 267.056 245.65 267.42C245.923 269.027 246.668 270.516 247.79 271.698C248.912 272.88 250.36 273.702 251.951 274.058C253.541 274.414 255.202 274.289 256.72 273.698C258.239 273.107 259.548 272.077 260.48 270.74C260.693 270.439 260.828 270.09 260.874 269.724C260.921 269.357 260.876 268.986 260.745 268.641C260.613 268.296 260.399 267.989 260.121 267.746C259.843 267.504 259.509 267.333 259.15 267.25L248.35 264.83Z" fill="white"/>
<path d="M211.87 248C211.622 248.002 211.378 247.942 211.159 247.825C210.941 247.708 210.756 247.538 210.62 247.33C205.897 240.254 204.178 231.592 205.841 223.248C207.505 214.905 212.414 207.564 219.49 202.84C219.821 202.62 220.227 202.541 220.617 202.62C221.007 202.698 221.35 202.929 221.57 203.26C221.79 203.592 221.87 203.997 221.791 204.387C221.712 204.777 221.481 205.12 221.15 205.34C214.745 209.63 210.304 216.288 208.804 223.85C207.304 231.412 208.867 239.26 213.15 245.67C213.371 246.001 213.452 246.405 213.375 246.795C213.298 247.185 213.07 247.529 212.74 247.75C212.482 247.92 212.179 248.007 211.87 248Z" fill="white"/>
<path d="M218.22 243.739C217.974 243.737 217.733 243.676 217.516 243.559C217.3 243.442 217.116 243.274 216.98 243.069C213.385 237.679 212.077 231.082 213.342 224.727C214.608 218.373 218.344 212.781 223.73 209.179C223.894 209.069 224.078 208.993 224.272 208.955C224.465 208.916 224.665 208.916 224.858 208.955C225.052 208.993 225.236 209.07 225.4 209.179C225.564 209.289 225.705 209.43 225.815 209.594C225.925 209.758 226.001 209.942 226.039 210.136C226.078 210.33 226.078 210.529 226.039 210.722C226.001 210.916 225.924 211.1 225.815 211.264C225.705 211.428 225.564 211.569 225.4 211.679C220.673 214.834 217.392 219.737 216.28 225.311C215.168 230.884 216.315 236.671 219.47 241.399C219.691 241.729 219.772 242.134 219.695 242.524C219.618 242.914 219.39 243.257 219.06 243.479C218.811 243.645 218.519 243.736 218.22 243.739Z" fill="white"/>
<path d="M224.58 239.49C224.335 239.492 224.093 239.432 223.877 239.317C223.66 239.202 223.476 239.034 223.34 238.83C222.115 236.996 221.263 234.937 220.834 232.773C220.406 230.609 220.408 228.382 220.84 226.219C221.273 224.056 222.128 221.999 223.357 220.167C224.585 218.334 226.163 216.762 228 215.54C228.33 215.335 228.727 215.266 229.107 215.348C229.487 215.43 229.821 215.656 230.037 215.979C230.254 216.302 230.336 216.696 230.268 217.079C230.199 217.461 229.985 217.803 229.67 218.03C228.163 219.036 226.87 220.329 225.863 221.834C224.856 223.34 224.156 225.029 223.802 226.806C223.448 228.582 223.448 230.411 223.801 232.188C224.154 233.964 224.854 235.654 225.86 237.16C226.079 237.491 226.158 237.895 226.081 238.284C226.005 238.674 225.778 239.017 225.45 239.24C225.192 239.41 224.889 239.497 224.58 239.49Z" fill="white"/>
<path d="M298.35 269.089C298.015 269.088 297.689 268.975 297.426 268.767C297.162 268.56 296.976 268.27 296.896 267.944C296.817 267.618 296.849 267.275 296.987 266.97C297.126 266.664 297.363 266.414 297.66 266.259C304.511 262.719 309.677 256.603 312.021 249.256C314.365 241.909 313.695 233.932 310.16 227.079C310.053 226.903 309.982 226.707 309.954 226.502C309.926 226.298 309.94 226.09 309.996 225.892C310.051 225.693 310.147 225.508 310.278 225.349C310.408 225.189 310.57 225.058 310.753 224.963C310.937 224.869 311.137 224.813 311.343 224.8C311.549 224.787 311.755 224.816 311.949 224.886C312.143 224.956 312.32 225.065 312.47 225.207C312.62 225.348 312.739 225.519 312.82 225.709C314.751 229.454 315.926 233.543 316.276 237.742C316.627 241.941 316.147 246.168 314.863 250.182C313.58 254.195 311.518 257.917 308.797 261.133C306.075 264.35 302.746 266.999 299 268.929C298.797 269.028 298.576 269.082 298.35 269.089Z" fill="white"/>
<path d="M294.84 262.299C294.505 262.298 294.179 262.185 293.916 261.978C293.652 261.77 293.466 261.48 293.386 261.155C293.307 260.829 293.339 260.486 293.477 260.18C293.616 259.875 293.853 259.624 294.15 259.469C296.652 258.179 298.876 256.408 300.693 254.258C302.511 252.108 303.887 249.621 304.742 246.939C305.597 244.256 305.916 241.432 305.678 238.626C305.441 235.821 304.653 233.09 303.36 230.589C303.177 230.235 303.142 229.823 303.263 229.443C303.384 229.063 303.651 228.747 304.005 228.564C304.359 228.381 304.771 228.346 305.151 228.467C305.531 228.588 305.847 228.855 306.03 229.209C307.504 232.06 308.401 235.173 308.671 238.371C308.941 241.569 308.578 244.788 307.603 247.846C306.628 250.903 305.06 253.738 302.988 256.189C300.917 258.64 298.382 260.658 295.53 262.129C295.318 262.243 295.081 262.301 294.84 262.299Z" fill="white"/>
<path d="M291.33 255.509C290.996 255.504 290.673 255.387 290.412 255.179C290.151 254.97 289.966 254.681 289.887 254.356C289.808 254.031 289.839 253.689 289.976 253.384C290.112 253.079 290.346 252.827 290.64 252.669C292.25 251.84 293.681 250.703 294.85 249.32C296.02 247.938 296.906 246.339 297.457 244.614C298.007 242.889 298.213 241.073 298.06 239.268C297.908 237.464 297.402 235.707 296.57 234.099C296.387 233.745 296.352 233.333 296.473 232.953C296.594 232.573 296.861 232.257 297.215 232.074C297.569 231.891 297.981 231.856 298.361 231.977C298.741 232.098 299.057 232.365 299.24 232.719C301.275 236.679 301.656 241.286 300.298 245.526C298.941 249.767 295.957 253.296 292 255.339C291.793 255.446 291.563 255.504 291.33 255.509Z" fill="white"/>
<path d="M203.36 125.85H195.72C195.522 125.855 195.332 125.93 195.183 126.062C195.035 126.193 194.938 126.373 194.91 126.57L193.31 141.81C193.299 141.902 193.307 141.995 193.334 142.083C193.362 142.172 193.408 142.253 193.47 142.322C193.531 142.391 193.607 142.446 193.691 142.484C193.776 142.521 193.867 142.54 193.96 142.54H201.6C201.8 142.534 201.991 142.458 202.14 142.324C202.288 142.19 202.384 142.008 202.41 141.81L204.01 126.57C204.022 126.478 204.013 126.386 203.986 126.298C203.958 126.21 203.912 126.129 203.85 126.061C203.788 125.992 203.713 125.938 203.628 125.902C203.544 125.865 203.452 125.848 203.36 125.85Z" fill="#B21D1D"/>
<path opacity="0.4" d="M202.67 125.849H195.72C195.522 125.854 195.332 125.929 195.183 126.061C195.035 126.193 194.938 126.373 194.91 126.569L193.31 141.809C193.299 141.901 193.307 141.994 193.334 142.083C193.362 142.171 193.408 142.252 193.47 142.322C193.531 142.391 193.607 142.446 193.691 142.483C193.776 142.521 193.867 142.54 193.96 142.539H200.96C201.159 142.534 201.349 142.457 201.495 142.323C201.642 142.189 201.736 142.007 201.76 141.809L203.36 126.569C203.374 126.474 203.367 126.377 203.337 126.285C203.308 126.193 203.258 126.109 203.192 126.04C203.125 125.97 203.044 125.917 202.953 125.884C202.863 125.851 202.766 125.839 202.67 125.849Z" fill="white"/>
<path d="M165.07 407.65C166.07 407.65 167.07 407.5 167.42 407.04C167.505 406.917 167.551 406.77 167.551 406.62C167.551 406.47 167.505 406.324 167.42 406.2C167.274 405.976 167.049 405.815 166.79 405.75C165.43 405.38 162.67 407 162.55 407.07C162.519 407.09 162.494 407.119 162.48 407.153C162.466 407.187 162.462 407.224 162.47 407.26C162.477 407.3 162.497 407.336 162.525 407.365C162.554 407.394 162.59 407.413 162.63 407.42C163.435 407.565 164.252 407.642 165.07 407.65ZM166.29 406.08C166.413 406.064 166.537 406.064 166.66 406.08C166.819 406.119 166.958 406.215 167.05 406.35C167.19 406.59 167.15 406.71 167.05 406.77C166.7 407.3 164.65 407.31 163.14 407.1C164.11 406.55 165.182 406.203 166.29 406.08Z" fill="#B21D1D"/>
<path d="M162.61 407.42H162.69C163.69 406.98 165.51 405.23 165.32 404.31C165.32 404.1 165.11 403.83 164.58 403.78C164.392 403.759 164.203 403.777 164.022 403.832C163.842 403.887 163.674 403.978 163.53 404.1C162.53 404.95 162.42 407.1 162.41 407.22C162.409 407.255 162.416 407.29 162.432 407.321C162.448 407.353 162.471 407.38 162.5 407.4C162.534 407.417 162.572 407.424 162.61 407.42ZM164.45 404.14H164.56C164.91 404.14 164.94 404.31 164.94 404.35C165.06 404.9 163.8 406.28 162.83 406.88C162.891 405.962 163.241 405.087 163.83 404.38C164.003 404.232 164.222 404.147 164.45 404.14Z" fill="#B21D1D"/>
<path d="M161.79 388.48H153.69V407.23H161.79V388.48Z" fill="#FF8B7B"/>
<path d="M94.95 398.29L103.04 399.17L108.31 380.97L100.22 380.09L94.95 398.29Z" fill="#FF8B7B"/>
<path d="M106.8 400.999C107.8 401.259 108.8 401.369 109.25 400.999C109.36 400.897 109.435 400.763 109.463 400.615C109.492 400.468 109.473 400.315 109.41 400.179C109.369 400.055 109.304 399.939 109.218 399.84C109.132 399.74 109.027 399.658 108.91 399.599C107.66 398.909 104.56 399.779 104.43 399.809C104.392 399.82 104.358 399.842 104.333 399.872C104.308 399.902 104.293 399.94 104.29 399.979C104.29 400.019 104.301 400.058 104.322 400.092C104.344 400.125 104.374 400.152 104.41 400.169C105.182 400.513 105.981 400.791 106.8 400.999ZM108.38 399.799C108.501 399.829 108.619 399.872 108.73 399.929C108.878 400 108.993 400.125 109.05 400.279C109.13 400.549 109.05 400.649 109.05 400.709C108.57 401.119 106.56 400.629 105.13 400.049C106.187 399.758 107.291 399.677 108.38 399.809V399.799Z" fill="#B21D1D"/>
<path d="M104.45 400.191H104.53C105.53 400.001 107.83 398.781 107.87 397.861C107.87 397.641 107.79 397.341 107.28 397.161C107.1 397.096 106.91 397.068 106.719 397.078C106.528 397.089 106.342 397.137 106.17 397.221C104.99 397.791 104.33 399.851 104.3 399.931C104.283 399.959 104.275 399.992 104.275 400.026C104.275 400.059 104.283 400.092 104.3 400.121C104.317 400.144 104.34 400.163 104.366 400.175C104.392 400.187 104.421 400.193 104.45 400.191ZM107.05 397.501H107.17C107.5 397.621 107.49 397.761 107.49 397.801C107.49 398.361 105.89 399.371 104.79 399.701C105.067 398.836 105.614 398.082 106.35 397.551C106.57 397.45 106.818 397.432 107.05 397.501Z" fill="#B21D1D"/>
<path d="M103.47 398.42L94.62 395.88C94.4679 395.835 94.3047 395.844 94.1586 395.906C94.0125 395.968 93.8927 396.079 93.82 396.22L90.56 402.69C90.4839 402.854 90.4447 403.033 90.4454 403.213C90.446 403.394 90.4865 403.572 90.5638 403.735C90.6411 403.899 90.7534 404.043 90.8928 404.158C91.0321 404.273 91.195 404.355 91.37 404.4C94.47 405.23 96.02 405.49 99.91 406.6C102.3 407.29 107.17 408.95 110.48 409.9C113.79 410.85 115.01 407.74 113.73 407.06C107.99 404.01 106.15 401.55 104.63 399.27C104.357 398.857 103.946 398.556 103.47 398.42Z" fill="#263238"/>
<path d="M161.7 406.289H152.86C152.701 406.287 152.547 406.343 152.425 406.446C152.304 406.549 152.224 406.692 152.2 406.849L150.91 413.999C150.881 414.178 150.891 414.36 150.94 414.534C150.988 414.708 151.074 414.87 151.191 415.008C151.308 415.146 151.453 415.256 151.617 415.333C151.781 415.409 151.959 415.449 152.14 415.449C155.33 415.389 159.93 415.199 163.94 415.199C168.63 415.199 171.19 415.459 176.69 415.459C180.01 415.459 180.79 412.099 179.38 411.789C172.99 410.409 169.3 410.259 163.68 406.879C163.083 406.512 162.4 406.309 161.7 406.289Z" fill="#263238"/>
<path opacity="0.2" d="M161.79 388.48H153.69V398.15H161.79V388.48Z" fill="black"/>
<path opacity="0.2" d="M100.22 380.1L108.31 380.97L105.38 391.07L97.5 389.48L100.22 380.1Z" fill="black"/>
<path d="M148.47 202C148.47 202 144 263.14 140 286.32C135.59 311.71 109.93 389.45 109.93 389.45L95.23 386.76C95.23 386.76 113.76 313.76 115.81 288.62C118.04 261.34 120.72 205.11 120.72 205.11L148.47 202Z" fill="#B21D1D"/>
<path opacity="0.3" d="M140.94 227.4C141.74 224.04 143.58 228.27 145.72 235.6C144.1 253.74 141.99 274.75 139.97 286.33C139.52 288.92 138.84 292.06 137.97 295.62C138.74 269.74 138.77 236.49 140.94 227.4Z" fill="black"/>
<path d="M163.74 200.34C163.74 200.34 169.61 261.8 169.81 286.49C170.02 312.18 164.73 396.28 164.73 396.28H151C151 396.28 146.88 313.68 145.17 288.45C143.3 260.95 135.43 203.45 135.43 203.45L163.74 200.34Z" fill="#B21D1D"/>
<path d="M113 384.501C113.06 384.501 110.69 389.831 110.69 389.831L94.15 386.831L95.15 381.881L113 384.501Z" fill="#263238"/>
<path d="M167.13 390.811C167.19 390.811 166.6 396.511 166.6 396.511H149.92L149.24 391.431L167.13 390.811Z" fill="#263238"/>
<path d="M121.12 145.561C120.02 147.691 118.81 149.931 117.71 152.141L114.35 158.801C113.26 161.021 112.19 163.251 111.16 165.481C110.13 167.711 109.16 169.931 108.33 172.151L108.25 168.651C108.835 170.448 109.536 172.205 110.35 173.911C110.74 174.791 111.24 175.631 111.67 176.501C112.1 177.371 112.67 178.201 113.18 179.021C114.241 180.716 115.389 182.354 116.62 183.931C117.24 184.721 117.86 185.531 118.52 186.291C119.18 187.05 119.9 187.841 120.52 188.491L120.72 188.711C121.181 189.216 121.446 189.87 121.469 190.554C121.492 191.237 121.27 191.907 120.844 192.443C120.419 192.978 119.816 193.344 119.144 193.476C118.473 193.607 117.777 193.496 117.18 193.161C116.146 192.578 115.145 191.941 114.18 191.251C113.18 190.591 112.3 189.901 111.4 189.171C109.598 187.693 107.907 186.085 106.34 184.361C104.74 182.608 103.285 180.729 101.99 178.741C100.659 176.715 99.5015 174.581 98.53 172.361C98.1021 171.418 98.0276 170.353 98.32 169.361L98.46 168.891C99.22 166.281 100.07 163.751 101.01 161.271C101.95 158.791 102.95 156.361 104.01 153.971C105.07 151.581 106.18 149.221 107.35 146.891C108.52 144.561 109.7 142.281 111.05 139.951C111.796 138.617 113.038 137.632 114.507 137.209C115.975 136.786 117.551 136.96 118.892 137.692C120.233 138.425 121.231 139.657 121.668 141.121C122.106 142.585 121.949 144.162 121.23 145.511L121.12 145.561Z" fill="#FF8B7B"/>
<path d="M126.86 142C127.26 149.63 118.6 163.64 118.6 163.64L100.77 154.73C102.937 148.41 106.29 142.562 110.65 137.5C120.08 127.08 126.49 135 126.86 142Z" fill="#263238"/>
<path d="M114.78 191.73L118.37 197.73L125.84 192.95C124.535 190.612 122.492 188.773 120.03 187.72C119.461 187.538 118.845 187.566 118.295 187.799C117.744 188.032 117.296 188.455 117.03 188.99L114.78 191.73Z" fill="#FF8B7B"/>
<path d="M121.36 200.29L124.83 199.64C125.122 199.586 125.401 199.475 125.649 199.312C125.898 199.15 126.113 198.94 126.28 198.695C126.447 198.45 126.564 198.173 126.624 197.882C126.685 197.592 126.686 197.292 126.63 197L125.84 193L118.37 197.78L118.87 198.99C119.075 199.458 119.433 199.842 119.886 200.079C120.339 200.315 120.859 200.39 121.36 200.29Z" fill="#FF8B7B"/>
<path d="M142.43 103.659C142.5 104.309 142.91 104.819 143.33 104.779C143.75 104.739 144.03 104.189 143.95 103.539C143.87 102.889 143.47 102.379 143.05 102.409C142.63 102.439 142.35 102.999 142.43 103.659Z" fill="#263238"/>
<path d="M142.85 104.82C143.861 106.763 145.122 108.564 146.6 110.18C145.6 111.35 143.6 111.01 143.6 111.01L142.85 104.82Z" fill="#FF5652"/>
<path d="M139.63 100.209C139.682 100.217 139.735 100.213 139.785 100.197C139.835 100.182 139.882 100.155 139.92 100.119C140.267 99.7945 140.688 99.5599 141.146 99.4361C141.605 99.3123 142.087 99.3031 142.55 99.4092C142.597 99.4243 142.647 99.4294 142.697 99.4244C142.746 99.4193 142.794 99.4041 142.837 99.3797C142.88 99.3553 142.918 99.3222 142.948 99.2825C142.977 99.2428 142.999 99.1974 143.01 99.1492C143.035 99.0498 143.021 98.9446 142.971 98.8553C142.921 98.766 142.838 98.6993 142.74 98.6691C142.155 98.5296 141.545 98.535 140.963 98.6849C140.381 98.8348 139.845 99.1246 139.4 99.5291C139.363 99.5646 139.333 99.6073 139.313 99.6546C139.293 99.7018 139.282 99.7527 139.282 99.8042C139.282 99.8556 139.293 99.9065 139.313 99.9537C139.333 100.001 139.363 100.044 139.4 100.079C139.428 100.115 139.462 100.145 139.502 100.167C139.541 100.19 139.585 100.204 139.63 100.209Z" fill="#263238"/>
<path d="M122.27 110.9C124.18 116.69 126.72 127.36 123.1 131.64C123.1 131.64 125.48 137.47 136.44 136.54C148.51 135.54 141.44 130.09 141.44 130.09C134.66 129.09 134.2 124.2 134.76 119.53L122.27 110.9Z" fill="#FF8B7B"/>
<path d="M120.51 133.751C119.38 131.941 118.12 129.871 120.26 129.101C122.61 128.251 135.81 126.871 140.51 128.031C145.21 129.191 144.25 133.031 144.25 133.031L120.51 133.751Z" fill="#B21D1D"/>
<path d="M159.16 136.19C160.88 137.77 162.74 139.52 164.59 141.12C166.44 142.72 168.31 144.36 170.19 145.94C172.07 147.52 173.99 149.01 175.92 150.46C177.85 151.91 179.81 153.23 181.77 154.46L177.77 154.08C179.432 153.636 181.005 152.909 182.42 151.93C184.073 150.774 185.607 149.458 187 148C188.501 146.464 189.907 144.837 191.21 143.13C191.88 142.26 192.55 141.38 193.21 140.47C193.87 139.56 194.47 138.6 195.02 137.76L195.13 137.6C195.51 137.02 196.085 136.595 196.752 136.405C197.419 136.214 198.132 136.269 198.761 136.56C199.39 136.851 199.894 137.358 200.18 137.99C200.466 138.621 200.516 139.335 200.32 140C199.94 141.3 199.54 142.41 199.08 143.57C198.62 144.73 198.14 145.87 197.6 146.99C196.505 149.274 195.224 151.465 193.77 153.54C192.244 155.74 190.465 157.753 188.47 159.54C186.262 161.511 183.7 163.045 180.92 164.06C180.323 164.27 179.691 164.36 179.059 164.324C178.427 164.288 177.809 164.127 177.24 163.85L176.91 163.68C174.427 162.459 172.016 161.097 169.69 159.6C167.42 158.13 165.22 156.6 163.1 154.96C160.98 153.32 158.93 151.66 156.93 149.96C154.93 148.26 153.01 146.48 151.06 144.49C150.022 143.407 149.444 141.965 149.447 140.466C149.449 138.967 150.032 137.527 151.074 136.448C152.115 135.369 153.533 134.735 155.032 134.68C156.53 134.624 157.992 135.151 159.11 136.15L159.16 136.19Z" fill="#FF8B7B"/>
<path d="M153.05 131C153.05 131 163.13 140.78 164.3 201.27C148.18 205.18 132.67 206.62 120.69 205.1C120.12 197.51 119.27 171.17 111.57 143.4C111.239 142.231 111.155 141.005 111.323 139.801C111.491 138.597 111.908 137.442 112.546 136.407C113.185 135.373 114.031 134.483 115.032 133.793C116.033 133.103 117.166 132.629 118.36 132.4C119.89 132.1 121.5 131.83 123.1 131.62C129.178 130.751 135.302 130.233 141.44 130.07C145.327 130.102 149.207 130.413 153.05 131Z" fill="#263238"/>
<path d="M145.23 141.54C146.23 149.11 159.23 163.66 159.23 163.66L174.66 147.66C170.076 142.848 165.121 138.405 159.84 134.37C148.53 125.92 144.33 134.52 145.23 141.54Z" fill="#263238"/>
<path d="M199.32 142.66L204.48 137.93L198.3 131.58C196.256 133.321 194.849 135.692 194.3 138.32C194.24 138.921 194.399 139.523 194.748 140.016C195.097 140.509 195.613 140.858 196.2 141L199.32 142.66Z" fill="#FF8B7B"/>
<path d="M206.38 134.491L205.05 131.221C204.937 130.94 204.77 130.685 204.557 130.471C204.344 130.256 204.09 130.086 203.81 129.972C203.53 129.857 203.23 129.8 202.928 129.803C202.626 129.806 202.327 129.87 202.05 129.991L198.26 131.581L204.44 137.931L205.52 137.201C205.953 136.917 206.276 136.493 206.432 135.999C206.589 135.505 206.571 134.973 206.38 134.491Z" fill="#FF8B7B"/>
<path d="M120.73 103.999C122.18 111.999 122.62 116.739 127.12 120.549C133.89 126.279 143.23 121.819 144.12 113.649C144.96 106.289 142.45 94.4392 134.31 91.8592C126.17 89.2792 119.28 95.9992 120.73 103.999Z" fill="#FF8B7B"/>
<path d="M136.5 106.88C139.31 107.52 141.5 104.27 141.8 103.35C140.43 103.48 138 102.78 137.52 102.16C139.02 102.29 140.47 100.44 140.65 99.7299C139.059 99.4226 137.649 98.5081 136.72 97.1799C139.15 97.1299 142.07 92.8499 139.4 89.0199C136.73 85.1899 125.57 88.3999 124 85.6699C121.66 87.0299 123.74 88.8399 123.74 88.8399C123.74 88.8399 107.95 91.8399 115.23 97.9299C109.89 98.4099 109.14 104.72 113.59 107.93C118.04 111.14 118.27 113.26 116.5 113C117.21 114.36 120.38 114.54 120.56 113.22C121.31 115.99 123.47 119.74 128.45 119.13C133.43 118.52 138.31 111.55 136.5 106.88Z" fill="#263238"/>
<path d="M116.61 96.9993C112.85 97.5193 111.14 95.3993 112.08 93.5293C107.42 95.9093 112.51 101.169 116.61 96.9993Z" fill="#263238"/>
<path d="M132.61 105.659C133.257 107.335 134.402 108.773 135.89 109.779C137.89 111.099 139.7 109.779 139.36 107.779C139.05 105.939 137.64 103.029 135.56 102.509C135.129 102.368 134.667 102.353 134.228 102.465C133.789 102.577 133.391 102.813 133.081 103.144C132.771 103.475 132.562 103.887 132.478 104.333C132.395 104.779 132.441 105.239 132.61 105.659Z" fill="#FF8B7B"/>
</svg>
