<svg width="8" height="8" viewBox="0 0 8 8" fill="none" xmlns="http://www.w3.org/2000/svg">
<path d="M1.00003 1.66667H7.00003C7.06078 1.66686 7.12032 1.68361 7.17225 1.71513C7.22419 1.74664 7.26654 1.79172 7.29476 1.84552C7.32298 1.89931 7.33599 1.95979 7.3324 2.02043C7.3288 2.08107 7.30874 2.13958 7.27436 2.18967L4.27436 6.523C4.15003 6.70267 3.8507 6.70267 3.72603 6.523L0.726028 2.18967C0.691303 2.13968 0.67094 2.08114 0.66715 2.0204C0.663361 1.95966 0.67629 1.89904 0.704533 1.84513C0.732776 1.79122 0.775254 1.74608 0.82735 1.71462C0.879446 1.68315 0.939168 1.66657 1.00003 1.66667Z" fill="black"/>
</svg>
