<svg width="16" height="16" viewBox="0 0 16 16" fill="none" xmlns="http://www.w3.org/2000/svg">
<path d="M13.5 4.5H8.16687L6.43313 3.2C6.25978 3.07066 6.04941 3.00054 5.83313 3H2.5C2.23478 3 1.98043 3.10536 1.79289 3.29289C1.60536 3.48043 1.5 3.73478 1.5 4V12.5C1.5 12.7652 1.60536 13.0196 1.79289 13.2071C1.98043 13.3946 2.23478 13.5 2.5 13.5H13.5556C13.806 13.4997 14.046 13.4001 14.223 13.223C14.4001 13.046 14.4997 12.806 14.5 12.5556V5.5C14.5 5.23478 14.3946 4.98043 14.2071 4.79289C14.0196 4.60536 13.7652 4.5 13.5 4.5ZM13.5 12.5H2.5V4H5.83313L7.56687 5.3C7.74022 5.42934 7.95059 5.49946 8.16687 5.5H13.5V12.5Z" fill="#3F3E3E"/>
</svg>
