<svg width="24" height="24" viewBox="0 0 24 24" fill="none" xmlns="http://www.w3.org/2000/svg">
<path d="M19.0001 9.5152C18.975 10.3856 18.6171 11.2133 18.0001 11.8277L15.8282 14.0008C15.5119 14.3189 15.1357 14.571 14.7212 14.7427C14.3068 14.9143 13.8624 15.0021 13.4139 15.0008H13.4107C12.9545 15.0005 12.503 14.9088 12.0828 14.731C11.6626 14.5532 11.2823 14.2931 10.9644 13.9659C10.6465 13.6387 10.3973 13.2511 10.2317 12.826C10.0661 12.4009 9.98733 11.9469 10.0001 11.4908C10.0038 11.3582 10.0601 11.2325 10.1565 11.1414C10.2529 11.0503 10.3816 11.0012 10.5142 11.0049C10.6468 11.0086 10.7725 11.0649 10.8636 11.1613C10.9547 11.2577 11.0038 11.3863 11.0001 11.519C10.991 11.8414 11.0466 12.1624 11.1637 12.463C11.2808 12.7636 11.4569 13.0377 11.6817 13.269C11.9065 13.5004 12.1753 13.6844 12.4724 13.8101C12.7695 13.9358 13.0888 14.0006 13.4114 14.0008C13.7285 14.0016 14.0426 13.9396 14.3356 13.8183C14.6285 13.6969 14.8946 13.5187 15.1182 13.294L17.2901 11.1221C17.7382 10.6683 17.9886 10.0557 17.9866 9.41802C17.9846 8.78031 17.7304 8.16929 17.2795 7.71835C16.8285 7.26742 16.2175 7.01321 15.5798 7.01121C14.9421 7.00922 14.3295 7.2596 13.8757 7.7077L13.1882 8.3952C13.0937 8.48501 12.9678 8.53434 12.8375 8.53267C12.7071 8.531 12.5825 8.47847 12.4903 8.38627C12.3981 8.29407 12.3456 8.16949 12.3439 8.03911C12.3422 7.90873 12.3916 7.78286 12.4814 7.68833L13.1689 7.00083C13.486 6.68353 13.8626 6.43184 14.2771 6.26011C14.6916 6.08839 15.1358 6 15.5845 6C16.0331 6 16.4774 6.08839 16.8919 6.26011C17.3063 6.43184 17.6829 6.68353 18.0001 7.00083C18.3286 7.33018 18.5867 7.72293 18.7586 8.15519C18.9306 8.58746 19.0127 9.05018 19.0001 9.5152ZM10.8126 15.6046L10.1251 16.2921C9.90088 16.5178 9.63401 16.6967 9.34002 16.8184C9.04603 16.9401 8.73078 17.0021 8.41261 17.0008C7.9353 17.0004 7.46881 16.8586 7.07209 16.5932C6.67537 16.3278 6.36621 15.9508 6.18368 15.5097C6.00116 15.0687 5.95345 14.5835 6.04659 14.1153C6.13974 13.6472 6.36955 13.2172 6.70699 12.8796L8.87511 10.7077C9.2166 10.3644 9.65343 10.1317 10.1289 10.0399C10.6043 9.94803 11.0963 10.0013 11.5411 10.1927C11.9859 10.3841 12.3629 10.7048 12.6231 11.1131C12.8832 11.5215 13.0146 11.9987 13.0001 12.4827C12.9964 12.6153 13.0455 12.744 13.1366 12.8404C13.2277 12.9368 13.3534 12.993 13.486 12.9968C13.6187 13.0005 13.7473 12.9514 13.8437 12.8603C13.9401 12.7691 13.9964 12.6434 14.0001 12.5108C14.0121 12.0465 13.9297 11.5846 13.7578 11.1532C13.5859 10.7217 13.3281 10.3297 13.0001 10.0008C12.3596 9.36059 11.491 9.00094 10.5854 9.00094C9.6798 9.00094 8.81125 9.36059 8.17074 10.0008L6.00011 12.1727C5.52276 12.6499 5.19756 13.2578 5.06562 13.9197C4.93368 14.5817 5.00091 15.2679 5.25883 15.8916C5.51675 16.5153 5.95377 17.0486 6.51467 17.424C7.07557 17.7994 7.73517 18.0002 8.41011 18.0008C8.85878 18.0021 9.30325 17.9144 9.71779 17.7428C10.1323 17.5711 10.5087 17.3189 10.8251 17.0008L11.5126 16.3133C11.5935 16.218 11.6358 16.0959 11.6311 15.9709C11.6264 15.846 11.575 15.7273 11.4872 15.6384C11.3993 15.5494 11.2813 15.4966 11.1565 15.4904C11.0316 15.4841 10.9089 15.5249 10.8126 15.6046Z" fill="white"/>
</svg>
