<?xml version="1.0" encoding="UTF-8" standalone="no"?>
<!DOCTYPE svg PUBLIC "-//W3C//DTD SVG 20010904//EN" "http://www.w3.org/TR/2001/REC-SVG-20010904/DTD/svg10.dtd">

<svg xmlns="http://www.w3.org/2000/svg"
  width="7.11111in" height="7.11111in"
  viewBox="0 0 640 640">
  <path id="Seleção"
    fill="white" stroke="white" stroke-width="1"
    d="M 115.00,0.42
           C 138.69,-2.47 171.97,2.98 193.00,14.31
             206.21,21.42 214.48,28.47 225.00,39.00
             234.45,48.46 243.93,60.86 249.68,73.00
             261.27,97.44 262.04,112.80 262.00,139.00
             262.00,139.00 260.46,161.00 260.46,161.00
             261.59,164.29 269.23,171.23 272.00,174.00
             272.00,174.00 299.00,201.00 299.00,201.00
             299.00,201.00 313.00,215.00 313.00,215.00
             314.63,216.60 317.58,219.96 320.00,219.96
             322.42,219.96 325.37,216.60 327.00,215.00
             327.00,215.00 341.00,201.00 341.00,201.00
             341.00,201.00 368.00,174.00 368.00,174.00
             370.77,171.23 378.41,164.29 379.54,161.00
             379.54,161.00 378.00,138.00 378.00,138.00
             377.96,111.58 378.93,97.67 390.31,73.00
             406.03,38.93 442.39,10.59 479.00,2.66
             488.38,0.63 503.28,-0.11 513.00,0.00
             527.00,0.17 540.79,2.72 554.00,7.34
             559.25,9.18 566.94,12.21 570.79,16.18
             579.86,25.54 577.35,35.03 569.70,44.00
             569.70,44.00 535.09,79.00 535.09,79.00
             533.02,81.22 521.62,93.40 521.20,95.00
             520.75,96.68 521.37,97.66 522.29,99.00
             522.29,99.00 537.00,114.00 537.00,114.00
             538.63,115.60 541.58,118.96 544.00,118.96
             546.20,118.96 548.52,116.41 550.00,114.99
             550.00,114.99 562.00,103.00 562.00,103.00
             562.00,103.00 572.00,93.00 572.00,93.00
             572.00,93.00 586.00,79.91 586.00,79.91
             596.58,70.05 607.86,55.57 622.91,68.39
             624.80,70.00 626.24,71.88 627.52,74.00
             629.58,77.39 631.69,83.17 633.00,87.00
             636.01,95.86 636.73,97.66 638.25,107.00
             639.90,117.17 640.12,127.70 640.00,138.00
             639.81,154.02 635.60,169.36 629.28,184.00
             612.98,221.79 580.44,250.10 540.00,258.99
             533.25,260.47 515.40,263.27 509.00,262.82
             509.00,262.82 492.00,261.58 492.00,261.58
             488.90,261.15 482.79,259.83 480.00,260.78
             477.21,261.72 470.49,267.91 468.00,270.17
             468.00,270.17 442.00,296.00 442.00,296.00
             442.00,296.00 426.00,312.00 426.00,312.00
             424.46,313.54 420.73,316.98 420.20,319.00
             419.45,321.81 422.27,324.19 424.01,326.00
             424.01,326.00 440.00,342.00 440.00,342.00
             440.00,342.00 467.00,369.00 467.00,369.00
             469.48,371.48 476.26,379.12 479.28,379.84
             481.32,380.32 488.50,378.80 491.00,378.43
             499.19,377.21 503.74,376.91 512.00,377.00
             524.63,377.15 541.01,380.63 553.00,384.67
             565.97,389.03 576.99,395.04 588.00,403.16
             611.13,420.22 631.75,451.64 637.55,480.00
             639.56,489.85 640.02,501.92 640.00,512.00
             639.99,518.18 638.67,532.02 637.34,538.00
             633.02,557.29 622.58,577.69 610.20,593.00
             600.83,604.59 586.29,616.87 573.00,623.74
             547.79,636.78 531.22,640.33 503.00,640.00
             486.52,639.80 471.07,635.78 456.00,629.28
             405.76,607.61 376.37,559.13 377.00,505.00
             377.00,505.00 378.92,488.00 378.92,488.00
             379.24,486.05 380.28,481.13 379.87,479.42
             379.11,476.30 371.54,469.54 369.00,467.00
             369.00,467.00 342.00,440.00 342.00,440.00
             342.00,440.00 327.00,425.00 327.00,425.00
             325.37,423.40 322.42,420.04 320.00,420.04
             317.58,420.04 314.63,423.40 313.00,425.00
             313.00,425.00 299.00,439.00 299.00,439.00
             299.00,439.00 272.00,466.00 272.00,466.00
             269.23,468.77 261.59,475.71 260.46,479.00
             260.46,479.00 262.00,502.00 262.00,502.00
             262.02,516.58 262.66,526.52 258.85,541.00
             246.43,588.13 212.66,623.90 165.00,635.87
             156.78,637.94 147.49,639.90 139.00,640.00
             139.00,640.00 123.00,640.00 123.00,640.00
             114.51,639.90 105.22,637.94 97.00,635.87
             91.04,634.38 85.70,632.72 80.00,630.40
             76.73,629.06 73.81,627.72 71.04,625.47
             69.06,623.87 67.53,622.19 66.22,620.00
             57.30,604.97 71.83,594.95 80.83,585.00
             80.83,585.00 91.00,574.00 91.00,574.00
             91.00,574.00 100.00,565.00 100.00,565.00
             100.00,565.00 114.99,550.00 114.99,550.00
             117.20,547.71 120.09,545.43 118.37,542.00
             117.36,539.98 105.48,528.45 103.00,526.00
             101.37,524.40 98.42,521.04 96.00,521.04
             93.79,521.04 91.48,523.59 90.00,525.01
             90.00,525.01 79.00,535.09 79.00,535.09
             79.00,535.09 69.00,545.00 69.00,545.00
             69.00,545.00 61.00,553.00 61.00,553.00
             54.55,559.45 40.78,575.06 32.00,576.57
             28.00,577.26 22.33,575.21 19.01,573.03
             16.48,571.37 14.77,569.53 13.13,567.00
             11.49,564.45 8.78,557.99 7.69,555.00
             5.21,548.15 3.30,542.22 2.08,535.00
             0.36,524.80 -0.12,514.33 0.00,504.00
             0.54,458.01 28.68,412.48 70.00,391.81
             94.64,379.48 111.17,377.96 138.00,378.00
             138.00,378.00 153.00,379.17 153.00,379.17
             155.48,379.46 158.64,380.52 161.00,379.68
             164.08,378.58 171.33,370.67 174.00,368.00
             174.00,368.00 202.00,340.00 202.00,340.00
             202.00,340.00 215.99,326.00 215.99,326.00
             217.73,324.19 220.55,321.81 219.80,319.00
             219.12,316.40 208.52,306.52 206.00,304.00
             206.00,304.00 175.00,273.00 175.00,273.00
             172.10,270.10 164.37,261.62 161.00,260.46
             158.26,259.52 149.43,261.50 146.00,261.91
             146.00,261.91 122.00,261.91 122.00,261.91
             74.50,261.44 28.75,226.84 10.43,184.00
             1.43,162.96 -0.26,145.50 0.00,123.00
             0.13,112.18 3.79,96.27 7.34,86.00
             9.16,80.74 11.56,74.23 15.33,70.10
             23.99,60.62 33.83,62.03 43.00,69.47
             43.00,69.47 79.00,104.83 79.00,104.83
             81.36,106.97 93.39,118.38 95.00,118.80
             96.68,119.25 97.66,118.63 99.00,117.71
             99.00,117.71 114.00,103.00 114.00,103.00
             115.60,101.37 118.96,98.42 118.96,96.00
             118.96,93.80 116.41,91.48 114.99,90.00
             114.99,90.00 102.00,77.00 102.00,77.00
             102.00,77.00 92.00,67.00 92.00,67.00
             92.00,67.00 79.91,54.00 79.91,54.00
             72.15,45.67 59.97,36.87 64.55,24.00
             65.56,21.15 67.07,18.36 69.21,16.21
             71.12,14.28 73.59,12.82 76.00,11.61
             79.55,9.82 87.14,6.90 91.00,5.72
             100.70,2.77 105.08,1.92 115.00,0.42 Z
           M 39.00,121.00
           C 37.06,127.82 38.58,140.82 39.75,148.00
             46.51,189.34 85.81,223.93 128.00,224.00
             128.00,224.00 134.00,224.00 134.00,224.00
             140.67,223.92 148.50,222.32 155.00,220.65
             162.14,219.05 164.75,216.51 172.00,220.65
             181.24,225.65 191.03,236.69 199.00,243.72
             199.00,243.72 228.00,272.00 228.00,272.00
             228.00,272.00 271.00,315.00 271.00,315.00
             271.00,315.00 378.00,422.00 378.00,422.00
             378.00,422.00 406.00,451.00 406.00,451.00
             409.82,454.82 419.02,464.07 420.49,469.00
             421.72,473.13 420.31,477.95 419.42,482.00
             417.97,488.63 416.08,497.30 416.00,504.00
             415.79,522.28 417.40,535.56 426.31,552.00
             443.32,583.41 475.34,602.41 511.00,602.00
             547.58,601.57 581.99,576.58 595.55,543.00
             598.76,535.04 600.26,526.48 601.16,518.00
             601.76,512.44 602.38,508.76 601.83,503.00
             598.16,464.46 574.57,431.93 537.00,420.03
             524.69,416.13 518.58,415.98 506.00,416.00
             497.17,416.01 490.51,417.55 482.00,419.56
             477.08,420.51 471.80,422.13 467.00,419.56
             460.91,416.59 447.49,402.37 442.00,397.01
             442.00,397.01 432.00,387.96 432.00,387.96
             432.00,387.96 396.00,352.00 396.00,352.00
             396.00,352.00 272.00,228.00 272.00,228.00
             272.00,228.00 249.04,205.00 249.04,205.00
             249.04,205.00 239.00,194.00 239.00,194.00
             233.61,188.54 221.59,175.93 219.14,169.00
             217.36,164.01 219.41,159.85 220.63,155.00
             222.21,148.66 223.92,140.50 224.00,134.00
             224.00,134.00 224.00,128.00 224.00,128.00
             223.93,85.22 189.12,45.75 147.00,39.73
             140.89,38.86 126.53,37.43 121.00,39.00
             128.66,50.43 145.09,64.84 155.17,76.00
             159.57,80.88 165.95,86.34 167.47,93.00
             169.41,101.53 161.31,108.27 156.28,114.00
             156.28,114.00 113.00,157.42 113.00,157.42
             107.62,162.07 100.94,169.20 93.00,167.59
             87.34,166.45 81.25,160.01 77.00,156.28
             67.01,147.52 48.06,126.29 39.00,121.00 Z
           M 519.00,38.00
           C 505.04,38.00 493.50,37.98 480.00,42.52
             440.73,55.72 415.52,91.86 416.00,133.00
             416.15,145.34 420.35,154.95 421.29,165.00
             422.19,174.50 409.31,186.68 403.00,193.00
             403.00,193.00 367.00,229.00 367.00,229.00
             361.31,234.69 351.36,243.91 347.00,250.00
             347.00,250.00 391.00,293.00 391.00,293.00
             391.00,293.00 447.00,237.00 447.00,237.00
             451.04,232.98 463.18,221.33 468.00,219.70
             470.10,218.99 472.79,218.95 475.00,219.04
             481.82,219.31 493.53,223.85 506.00,224.00
             548.66,224.50 584.07,199.77 597.65,159.00
             601.43,147.63 602.00,132.96 602.00,121.00
             595.13,123.93 590.20,129.80 585.00,135.00
             585.00,135.00 562.00,157.17 562.00,157.17
             556.80,161.85 550.81,168.65 543.00,167.63
             536.23,166.75 526.85,157.72 522.00,152.99
             522.00,152.99 483.17,114.00 483.17,114.00
             477.78,108.01 470.00,99.64 473.13,91.00
             474.83,86.30 480.62,79.72 484.09,76.00
             484.09,76.00 506.00,54.00 506.00,54.00
             510.88,49.12 516.12,44.38 519.00,38.00 Z
           M 250.00,347.00
           C 243.99,351.30 235.55,360.45 230.00,366.00
             230.00,366.00 197.00,399.00 197.00,399.00
             192.46,403.54 178.13,417.70 173.00,419.75
             168.26,421.96 161.87,420.64 157.00,419.75
             149.46,417.92 141.76,416.09 134.00,416.00
             134.00,416.00 128.00,416.00 128.00,416.00
             93.88,416.05 59.27,439.90 45.87,471.00
             39.09,486.74 38.00,502.12 38.00,519.00
             44.87,516.07 49.80,510.20 55.00,505.00
             55.00,505.00 78.00,482.83 78.00,482.83
             83.20,478.15 89.19,471.35 97.00,472.37
             103.77,473.25 113.15,482.28 118.00,487.01
             118.00,487.01 156.83,526.00 156.83,526.00
             162.22,531.99 170.00,540.36 166.87,549.00
             165.17,553.70 159.38,560.28 155.91,564.00
             155.91,564.00 134.00,586.00 134.00,586.00
             129.12,590.88 123.88,595.62 121.00,602.00
             136.96,602.00 148.72,601.78 164.00,595.94
             201.73,581.50 224.46,545.86 224.00,506.00
             224.00,506.00 218.71,475.00 218.71,475.00
             217.82,465.60 230.73,453.30 237.00,447.00
             237.00,447.00 273.00,411.00 273.00,411.00
             278.69,405.31 288.64,396.09 293.00,390.00
             293.00,390.00 250.00,347.00 250.00,347.00 Z
           M 495.00,452.42
           C 501.96,451.58 526.15,451.34 532.00,453.93
             536.51,455.93 548.18,467.10 551.99,471.00
             555.27,474.37 562.22,481.82 563.85,486.00
             565.43,490.04 564.77,493.84 565.13,498.00
             566.30,509.89 565.89,509.55 565.13,521.00
             564.79,525.22 565.32,527.86 563.44,532.00
             560.75,537.96 552.73,545.27 548.00,550.00
             538.41,559.59 535.11,564.98 521.00,565.00
             521.00,565.00 496.00,565.00 496.00,565.00
             485.70,564.98 484.74,563.96 477.00,557.15
             477.00,557.15 468.00,549.00 468.00,549.00
             464.42,545.44 455.80,536.38 454.01,532.00
             452.78,529.00 452.04,521.38 452.00,518.00
             451.92,510.59 451.40,493.37 453.39,487.00
             454.99,481.88 461.23,475.79 465.00,472.00
             469.49,467.49 479.75,456.35 485.00,454.09
             487.70,452.92 491.94,452.86 495.00,452.42 Z
           M 509.00,490.57
           C 505.60,490.75 501.97,490.89 499.00,492.74
             486.73,500.39 488.17,520.98 502.00,526.26
             504.16,527.09 507.66,527.05 510.00,526.98
             521.85,526.66 527.31,518.01 526.98,507.00
             526.80,500.53 522.15,493.99 516.00,491.58
             513.94,490.78 511.20,490.69 509.00,490.57 Z" />
</svg>
