<svg width="20" height="20" viewBox="0 0 20 20" fill="none" xmlns="http://www.w3.org/2000/svg">
<path d="M18.5219 4.65605C19.0138 5.80476 19.1343 7.07856 18.8663 8.29912C18.5983 9.51967 17.9554 10.6259 17.0275 11.4629C16.0996 12.2998 14.9331 12.8257 13.6915 12.9668C12.4499 13.1079 11.1952 12.8572 10.1031 12.2498L4.84375 18.3436C4.42106 18.7662 3.84777 19.0037 3.25 19.0037C2.65222 19.0037 2.07894 18.7662 1.65625 18.3436C1.23356 17.9209 0.996094 17.3476 0.996094 16.7498C0.996094 16.152 1.23356 15.5787 1.65625 15.1561L7.75 9.89668C7.14258 8.80461 6.89188 7.54993 7.03299 6.3083C7.1741 5.06667 7.69996 3.90024 8.53694 2.97233C9.37392 2.04441 10.4801 1.40147 11.7007 1.1335C12.9212 0.865533 14.195 0.985962 15.3437 1.47793L11.4062 5.40605L11.9406 8.05918L14.5937 8.59355L18.5219 4.65605Z" stroke="white" stroke-width="1.5" stroke-linecap="round" stroke-linejoin="round"/>
</svg>
