<svg width="24" height="24" viewBox="0 0 24 24" fill="none" xmlns="http://www.w3.org/2000/svg">
<path d="M17.176 10.1892C17.1745 10.1 17.1553 9.32264 17.1193 9.24102C17.0833 9.15941 17.0314 9.08582 16.9665 9.02458L10.5229 3.16894C10.4041 3.06027 10.249 3 10.088 3C9.92699 3 9.77182 3.06027 9.65304 3.16894L3.20942 9.02458C3.14458 9.08582 3.09264 9.15941 3.05668 9.24102C3.02071 9.32264 3.00144 9.41062 3 9.4998V16.9502C3 17.1211 3.06789 17.285 3.18873 17.4059C3.30957 17.5267 3.47347 17.5946 3.64436 17.5946H7.51053C7.68143 17.5946 7.84533 17.5267 7.96617 17.4059C8.08701 17.285 8.1549 17.1211 8.1549 16.9502V13.0841C8.1549 12.9132 8.22278 12.7493 8.34363 12.6284C8.46447 12.5076 8.62836 12.4397 8.79926 12.4397H11.3767C11.5476 12.4397 11.7115 12.5076 11.8323 12.6284C11.9532 12.7493 12.0211 12.9132 12.0211 13.0841V16.6216V17.0899L12.2432 17.3784" stroke="white" stroke-width="1.5" stroke-linecap="round" stroke-linejoin="round"/>
<path d="M20.7241 12.818C21.0047 13.4731 21.0733 14.1995 20.9205 14.8955C20.7677 15.5916 20.4011 16.2224 19.8719 16.6997C19.3427 17.177 18.6776 17.4769 17.9695 17.5574C17.2614 17.6378 16.5459 17.4949 15.9232 17.1485L12.9239 20.6235C12.6829 20.8646 12.3559 21 12.0151 21C11.6742 21 11.3472 20.8646 11.1062 20.6235C10.8651 20.3825 10.7297 20.0556 10.7297 19.7147C10.7297 19.3738 10.8651 19.0469 11.1062 18.8058L14.5813 15.8066C14.2349 15.1838 14.0919 14.4683 14.1724 13.7602C14.2528 13.0522 14.5527 12.387 15.03 11.8578C15.5073 11.3287 16.1382 10.962 16.8342 10.8092C17.5303 10.6564 18.2567 10.7251 18.9117 11.0056L16.6663 13.2457L16.971 14.7587L18.484 15.0634L20.7241 12.818Z" stroke="white" stroke-linecap="round" stroke-linejoin="round"/>
</svg>
