<?xml version="1.0" standalone="no"?>
<!DOCTYPE svg PUBLIC "-//W3C//DTD SVG 20010904//EN"
 "http://www.w3.org/TR/2001/REC-SVG-20010904/DTD/svg10.dtd">
<svg version="1.0" xmlns="http://www.w3.org/2000/svg"
 width="512.000000pt" height="512.000000pt" viewBox="0 0 512.000000 512.000000"
 preserveAspectRatio="xMidYMid meet">

<g transform="translate(0.000000,512.000000) scale(0.100000,-0.100000)"
fill="#000000" stroke="none">
<path d="M895 5109 c-122 -18 -291 -78 -335 -119 -15 -14 -34 -45 -41 -68 -23
-79 -12 -94 236 -342 l225 -225 -107 -107 -108 -108 -230 229 c-256 256 -263
260 -350 226 -52 -19 -74 -46 -109 -135 -106 -268 -98 -566 24 -835 97 -216
309 -422 531 -516 138 -59 248 -81 404 -82 82 -1 164 4 199 12 l59 13 246
-246 246 -246 -246 -246 -246 -246 -64 13 c-35 7 -125 12 -199 12 -151 -1
-262 -24 -399 -82 -233 -99 -441 -306 -542 -540 -65 -152 -83 -244 -83 -421 0
-167 16 -258 71 -392 35 -88 56 -114 108 -133 87 -34 94 -30 350 226 l230 229
108 -108 107 -107 -225 -225 c-248 -248 -259 -263 -236 -342 17 -55 54 -88
137 -121 246 -96 504 -100 749 -13 332 119 570 383 662 735 20 78 25 121 26
231 0 74 -5 164 -12 199 l-13 64 246 246 246 246 245 -245 244 -245 -15 -90
c-42 -235 17 -509 156 -723 145 -225 361 -378 640 -455 109 -29 371 -29 480 0
205 56 370 150 503 284 134 136 224 297 280 499 29 109 29 371 0 480 -93 337
-306 593 -603 721 -183 79 -397 107 -575 75 l-90 -15 -245 244 -245 245 245
245 c231 232 247 246 275 240 108 -21 231 -27 323 -17 454 52 795 353 915 806
17 67 21 108 21 241 -1 172 -14 242 -71 389 -33 83 -66 120 -121 137 -79 23
-94 12 -342 -236 l-225 -225 -107 107 -108 108 229 230 c256 256 260 263 226
350 -19 52 -45 73 -133 108 -134 55 -225 71 -392 71 -177 0 -269 -18 -421 -83
-234 -101 -441 -309 -540 -542 -58 -137 -81 -248 -82 -399 0 -74 5 -164 12
-199 l13 -64 -246 -246 -246 -246 -246 246 -246 246 13 59 c7 34 13 119 12
199 -1 156 -23 265 -82 404 -89 210 -280 414 -486 518 -178 91 -429 131 -630
102z m346 -314 c290 -78 504 -319 549 -620 14 -93 8 -186 -22 -302 -36 -145
-132 -33 965 -1131 828 -828 978 -974 1011 -983 32 -9 54 -7 125 12 223 57
426 25 611 -96 223 -146 354 -403 337 -665 -13 -195 -77 -341 -210 -479 -298
-307 -776 -307 -1074 0 -189 196 -253 448 -184 720 19 71 21 93 12 125 -9 33
-155 183 -983 1011 -1098 1097 -986 1001 -1131 965 -116 -30 -209 -36 -302
-22 -302 46 -539 257 -621 555 -17 61 -29 222 -20 260 7 27 12 23 199 -163
209 -207 225 -218 305 -194 54 16 517 482 527 530 16 79 6 94 -197 298 -127
128 -186 194 -177 198 24 10 221 -3 280 -19z m2923 18 c3 -4 -79 -93 -183
-197 -274 -277 -277 -243 52 -574 259 -259 276 -272 354 -257 32 6 66 34 230
198 155 154 194 187 199 173 10 -27 -3 -213 -20 -271 -84 -302 -323 -513 -627
-555 -97 -13 -178 -7 -301 22 -72 18 -93 20 -125 10 -30 -9 -98 -72 -328 -302
l-290 -290 -177 177 -178 178 294 295 c337 337 322 314 288 453 -43 170 -38
306 18 459 89 243 319 435 571 477 66 11 213 14 223 4z m-2108 -3113 c-337
-337 -322 -314 -288 -453 29 -116 35 -199 22 -296 -45 -327 -297 -588 -620
-640 -74 -12 -203 -15 -214 -4 -3 4 79 93 183 197 274 277 277 243 -52 574
-259 259 -276 272 -354 257 -32 -6 -66 -34 -230 -198 -155 -154 -194 -187
-199 -173 -11 28 4 214 21 280 78 286 321 501 620 546 94 14 184 8 307 -22 73
-18 93 -20 125 -10 30 9 98 72 328 302 l290 290 177 -177 178 -178 -294 -295z"/>
<path d="M3885 1486 c-40 -18 -241 -223 -254 -259 -17 -43 -14 -321 3 -360 18
-41 222 -242 259 -256 37 -14 317 -14 354 0 37 14 241 215 259 256 20 45 20
321 0 366 -18 41 -222 242 -259 256 -43 16 -325 13 -362 -3z m293 -329 c41
-41 42 -45 42 -108 0 -63 -1 -66 -43 -107 -41 -41 -45 -42 -107 -42 -62 0 -66
1 -107 42 -42 41 -43 44 -43 107 0 63 1 67 42 108 41 42 44 43 108 43 64 0 67
-1 108 -43z"/>
</g>
</svg>
