<svg width="24" height="24" viewBox="0 0 24 24" fill="none" xmlns="http://www.w3.org/2000/svg">
<circle cx="12" cy="12" r="12" fill="#B21D1D"/>
<path d="M18 13.5C18 13.6326 17.9473 13.7598 17.8536 13.8536C17.7598 13.9473 17.6326 14 17.5 14H16V15H17C17.1326 15 17.2598 15.0527 17.3536 15.1464C17.4473 15.2402 17.5 15.3674 17.5 15.5C17.5 15.6326 17.4473 15.7598 17.3536 15.8536C17.2598 15.9473 17.1326 16 17 16H16V17C16 17.1326 15.9473 17.2598 15.8536 17.3536C15.7598 17.4473 15.6326 17.5 15.5 17.5C15.3674 17.5 15.2402 17.4473 15.1464 17.3536C15.0527 17.2598 15 17.1326 15 17V13.5C15 13.3674 15.0527 13.2402 15.1464 13.1464C15.2402 13.0527 15.3674 13 15.5 13H17.5C17.6326 13 17.7598 13.0527 17.8536 13.1464C17.9473 13.2402 18 13.3674 18 13.5ZM9.75 14.75C9.75 15.2141 9.56563 15.6592 9.23744 15.9874C8.90925 16.3156 8.46413 16.5 8 16.5H7.5V17C7.5 17.1326 7.44732 17.2598 7.35355 17.3536C7.25979 17.4473 7.13261 17.5 7 17.5C6.86739 17.5 6.74021 17.4473 6.64645 17.3536C6.55268 17.2598 6.5 17.1326 6.5 17V13.5C6.5 13.3674 6.55268 13.2402 6.64645 13.1464C6.74021 13.0527 6.86739 13 7 13H8C8.46413 13 8.90925 13.1844 9.23744 13.5126C9.56563 13.8408 9.75 14.2859 9.75 14.75ZM8.75 14.75C8.75 14.5511 8.67098 14.3603 8.53033 14.2197C8.38968 14.079 8.19891 14 8 14H7.5V15.5H8C8.19891 15.5 8.38968 15.421 8.53033 15.2803C8.67098 15.1397 8.75 14.9489 8.75 14.75ZM14.25 15.25C14.25 15.8467 14.0129 16.419 13.591 16.841C13.169 17.2629 12.5967 17.5 12 17.5H11C10.8674 17.5 10.7402 17.4473 10.6464 17.3536C10.5527 17.2598 10.5 17.1326 10.5 17V13.5C10.5 13.3674 10.5527 13.2402 10.6464 13.1464C10.7402 13.0527 10.8674 13 11 13H12C12.5967 13 13.169 13.2371 13.591 13.659C14.0129 14.081 14.25 14.6533 14.25 15.25ZM13.25 15.25C13.25 14.9185 13.1183 14.6005 12.8839 14.3661C12.6495 14.1317 12.3315 14 12 14H11.5V16.5H12C12.3315 16.5 12.6495 16.3683 12.8839 16.1339C13.1183 15.8995 13.25 15.5815 13.25 15.25ZM6.5 11V6.5C6.5 6.23478 6.60536 5.98043 6.79289 5.79289C6.98043 5.60536 7.23478 5.5 7.5 5.5H13.5C13.5657 5.49995 13.6307 5.51284 13.6914 5.53793C13.7521 5.56303 13.8073 5.59983 13.8538 5.64625L17.3538 9.14625C17.4002 9.19272 17.437 9.24788 17.4621 9.30858C17.4872 9.36927 17.5001 9.43432 17.5 9.5V11C17.5 11.1326 17.4473 11.2598 17.3536 11.3536C17.2598 11.4473 17.1326 11.5 17 11.5C16.8674 11.5 16.7402 11.4473 16.6464 11.3536C16.5527 11.2598 16.5 11.1326 16.5 11V10H13.5C13.3674 10 13.2402 9.94732 13.1464 9.85355C13.0527 9.75979 13 9.63261 13 9.5V6.5H7.5V11C7.5 11.1326 7.44732 11.2598 7.35355 11.3536C7.25979 11.4473 7.13261 11.5 7 11.5C6.86739 11.5 6.74021 11.4473 6.64645 11.3536C6.55268 11.2598 6.5 11.1326 6.5 11ZM14 9H15.7931L14 7.20688V9Z" fill="white"/>
</svg>
