<svg width="16" height="16" viewBox="0 0 16 16" fill="none" xmlns="http://www.w3.org/2000/svg">
<g id="Icons">
<path id="Vector" d="M13 2.5H3C2.72386 2.5 2.5 2.72386 2.5 3V13C2.5 13.2761 2.72386 13.5 3 13.5H13C13.2761 13.5 13.5 13.2761 13.5 13V3C13.5 2.72386 13.2761 2.5 13 2.5Z" stroke="#3F3E3E" stroke-linecap="round" stroke-linejoin="round"/>
<path id="Vector_2" d="M13.5 9.99995L10.8562 7.35619C10.8097 7.30895 10.7543 7.27144 10.6931 7.24583C10.6319 7.22022 10.5663 7.20703 10.5 7.20703C10.4337 7.20703 10.3681 7.22022 10.3069 7.24583C10.2457 7.27144 10.1903 7.30895 10.1438 7.35619L7.35625 10.1437C7.30973 10.1909 7.25427 10.2285 7.19311 10.2541C7.13195 10.2797 7.06631 10.2929 7 10.2929C6.93369 10.2929 6.86805 10.2797 6.80689 10.2541C6.74573 10.2285 6.69027 10.1909 6.64375 10.1437L5.35625 8.8562C5.30973 8.80895 5.25427 8.77144 5.19311 8.74583C5.13195 8.72022 5.06631 8.70703 5 8.70703C4.93369 8.70703 4.86805 8.72022 4.80689 8.74583C4.74573 8.77144 4.69027 8.80895 4.64375 8.8562L2.5 10.9999" stroke="#3F3E3E" stroke-linecap="round" stroke-linejoin="round"/>
<path id="Vector_3" d="M6.25 6.5C6.66421 6.5 7 6.16421 7 5.75C7 5.33579 6.66421 5 6.25 5C5.83579 5 5.5 5.33579 5.5 5.75C5.5 6.16421 5.83579 6.5 6.25 6.5Z" fill="#3F3E3E"/>
</g>
</svg>
