<?xml version="1.0" standalone="no"?>
<!DOCTYPE svg PUBLIC "-//W3C//DTD SVG 20010904//EN" "http://www.w3.org/TR/2001/REC-SVG-20010904/DTD/svg10.dtd">
<svg version="1.0" xmlns="http://www.w3.org/2000/svg"
  width="512.000000pt" height="512.000000pt" viewBox="0 0 512.000000 512.000000"
  preserveAspectRatio="xMidYMid meet">

  <g transform="translate(0.000000,512.000000) scale(0.100000,-0.100000)"
    fill="#000000" stroke="none">
    <path
      d="M2605 4476 c-16 -7 -40 -24 -51 -37 -12 -13 -139 -190 -284 -394
-144 -203 -263 -371 -265 -373 -1 -1 -18 4 -37 12 -19 8 -65 20 -101 26 -112
20 -161 5 -519 -150 -318 -138 -386 -176 -439 -243 -57 -72 -854 -1336 -877
-1391 -102 -249 55 -537 326 -597 40 -9 51 -16 48 -28 -17 -58 -77 -526 -72
-555 13 -68 100 -125 169 -112 18 4 135 62 262 131 l229 124 51 -48 c28 -27
71 -59 96 -71 143 -74 327 -64 458 24 l51 35 51 -35 c177 -119 426 -91 570 63
85 91 129 197 129 311 0 40 3 53 13 49 185 -81 374 -140 552 -172 141 -26 433
-31 593 -11 206 27 431 87 600 162 30 13 56 24 58 24 2 0 4 -86 4 -191 0 -178
2 -194 22 -230 14 -25 37 -46 63 -59 39 -19 62 -20 365 -20 303 0 326 1 365
20 26 13 49 34 63 59 l22 39 0 1082 c0 1197 4 1124 -64 1173 -30 22 -37 22
-374 25 -380 3 -389 2 -435 -62 -19 -26 -23 -47 -25 -133 l-4 -103 -130 0
-129 0 -192 91 c-412 196 -882 421 -885 424 -2 2 87 132 197 289 110 158 205
296 212 307 16 30 13 102 -5 137 -11 22 -97 88 -282 217 -147 103 -278 191
-291 196 -33 12 -72 11 -108 -5z m302 -490 c18 -11 33 -25 32 -31 0 -5 -36
-61 -80 -123 -56 -78 -85 -112 -95 -108 -14 5 -207 139 -228 157 -8 7 23 56
126 197 l39 52 87 -61 c48 -34 102 -71 119 -83z m-420 -439 c94 -65 111 -81
104 -95 -5 -9 -200 -289 -434 -622 l-424 -605 -197 -3 -198 -2 35 47 c18 27
246 346 506 711 312 439 476 660 484 655 7 -3 63 -42 124 -86z m-673 -139 c-4
-7 -224 -317 -488 -688 -527 -742 -778 -1077 -814 -1091 -105 -40 -220 41
-209 148 4 35 76 155 412 685 224 354 420 655 434 670 16 16 138 75 326 157
283 123 357 149 339 119z m1482 -605 l579 -278 173 -3 172 -3 0 -480 0 -479
-87 -44 c-286 -142 -565 -203 -893 -193 -293 9 -474 58 -775 208 l-180 89
-560 0 -560 0 -39 23 c-101 57 -99 185 4 255 l33 22 511 0 c311 0 546 4 601
11 175 22 350 85 492 179 124 82 210 162 224 210 33 110 -68 221 -176 191 -18
-5 -67 -37 -107 -71 -157 -133 -321 -200 -527 -217 -74 -5 -83 -4 -75 9 36 63
591 847 600 848 6 0 271 -125 590 -277z m1524 -883 l0 -900 -150 0 -150 0 0
900 0 900 150 0 150 0 0 -900z m-3835 -541 c36 -19 65 -36 65 -39 0 -4 -20
-33 -44 -66 -40 -56 -56 -67 -186 -138 -78 -42 -143 -76 -145 -74 -1 2 8 75
21 162 l25 159 50 69 51 68 49 -54 c30 -33 75 -67 114 -87z m515 -151 c0 -108
-16 -150 -69 -185 -46 -31 -116 -31 -161 0 -19 12 -33 26 -33 30 1 5 38 62 84
128 l82 119 49 0 48 0 0 -92z m600 0 c0 -108 -16 -150 -70 -186 -29 -20 -44
-23 -88 -20 -103 9 -142 65 -142 205 l0 93 150 0 150 0 0 -92z" />
  </g>
</svg>
