<svg width="24" height="24" viewBox="0 0 24 24" fill="none" xmlns="http://www.w3.org/2000/svg">
<path d="M11.5 5V4.5C11.5 4.36739 11.5527 4.24021 11.6464 4.14645C11.7402 4.05268 11.8674 4 12 4C12.1326 4 12.2598 4.05268 12.3536 4.14645C12.4473 4.24021 12.5 4.36739 12.5 4.5V5C12.5 5.13261 12.4473 5.25979 12.3536 5.35355C12.2598 5.44732 12.1326 5.5 12 5.5C11.8674 5.5 11.7402 5.44732 11.6464 5.35355C11.5527 5.25979 11.5 5.13261 11.5 5ZM16.5 7C16.5657 7.00005 16.6307 6.98716 16.6914 6.96207C16.7521 6.93697 16.8073 6.90017 16.8538 6.85375L17.3538 6.35375C17.4476 6.25993 17.5003 6.13268 17.5003 6C17.5003 5.86732 17.4476 5.74007 17.3538 5.64625C17.2599 5.55243 17.1327 5.49972 17 5.49972C16.8673 5.49972 16.7401 5.55243 16.6462 5.64625L16.1462 6.14625C16.0762 6.21618 16.0286 6.3053 16.0092 6.40235C15.9899 6.49939 15.9998 6.59998 16.0377 6.6914C16.0756 6.78281 16.1397 6.86092 16.222 6.91586C16.3043 6.9708 16.4011 7.00008 16.5 7ZM7.14625 6.85375C7.19271 6.90021 7.24786 6.93706 7.30855 6.9622C7.36925 6.98734 7.4343 7.00028 7.5 7.00028C7.5657 7.00028 7.63075 6.98734 7.69145 6.9622C7.75214 6.93706 7.80729 6.90021 7.85375 6.85375C7.90021 6.80729 7.93706 6.75214 7.9622 6.69145C7.98734 6.63075 8.00028 6.5657 8.00028 6.5C8.00028 6.4343 7.98734 6.36925 7.9622 6.30855C7.93706 6.24786 7.90021 6.19271 7.85375 6.14625L7.35375 5.64625C7.25993 5.55243 7.13268 5.49972 7 5.49972C6.86732 5.49972 6.74007 5.55243 6.64625 5.64625C6.55243 5.74007 6.49972 5.86732 6.49972 6C6.49972 6.13268 6.55243 6.25993 6.64625 6.35375L7.14625 6.85375ZM12.5837 8.50688C12.5187 8.49537 12.452 8.49687 12.3876 8.51128C12.3231 8.5257 12.2621 8.55274 12.2082 8.59085C12.1543 8.62896 12.1084 8.67738 12.0733 8.73331C12.0381 8.78925 12.0144 8.85159 12.0035 8.91673C11.9926 8.98188 11.9948 9.04854 12.0098 9.11286C12.0248 9.17718 12.0524 9.23789 12.091 9.29149C12.1296 9.34508 12.1784 9.39049 12.2347 9.4251C12.2909 9.45971 12.3535 9.48283 12.4187 9.49312C13.6044 9.6925 14.5 10.77 14.5 12C14.5 12.1326 14.5527 12.2598 14.6464 12.3536C14.7402 12.4473 14.8674 12.5 15 12.5C15.1326 12.5 15.2598 12.4473 15.3536 12.3536C15.4473 12.2598 15.5 12.1326 15.5 12C15.5 10.2875 14.2456 8.78562 12.5825 8.50688H12.5837ZM18.5 15V16.5C18.5 16.7652 18.3946 17.0196 18.2071 17.2071C18.0196 17.3946 17.7652 17.5 17.5 17.5H6.5C6.23478 17.5 5.98043 17.3946 5.79289 17.2071C5.60536 17.0196 5.5 16.7652 5.5 16.5V15C5.5 14.7348 5.60536 14.4804 5.79289 14.2929C5.98043 14.1054 6.23478 14 6.5 14V12C6.49998 11.2742 6.64362 10.5556 6.92263 9.88552C7.20165 9.21549 7.61052 8.60731 8.12569 8.09603C8.64086 7.58476 9.25212 7.18051 9.92425 6.90658C10.5964 6.63266 11.3161 6.49447 12.0419 6.5C15.0513 6.5225 17.5 9.01813 17.5 12.0625V14C17.7652 14 18.0196 14.1054 18.2071 14.2929C18.3946 14.4804 18.5 14.7348 18.5 15ZM7.5 14H16.5V12.0625C16.5 9.5625 14.4969 7.51813 12.0344 7.5H12C10.8065 7.5 9.66193 7.97411 8.81802 8.81802C7.97411 9.66193 7.5 10.8065 7.5 12V14ZM17.5 16.5V15H6.5V16.5H17.5Z" fill="white"/>
</svg>
