<svg width="24" height="25" viewBox="0 0 24 25" fill="none" xmlns="http://www.w3.org/2000/svg">
<path d="M7.5 19.6875C9.15685 19.6875 10.5 18.3444 10.5 16.6875C10.5 15.0306 9.15685 13.6875 7.5 13.6875C5.84315 13.6875 4.5 15.0306 4.5 16.6875C4.5 18.3444 5.84315 19.6875 7.5 19.6875Z" stroke="white" stroke-width="1.5" stroke-linecap="round" stroke-linejoin="round"/>
<path d="M3 21.9375C3.52395 21.2389 4.20336 20.6719 4.98442 20.2813C5.76549 19.8908 6.62675 19.6875 7.5 19.6875C8.37325 19.6875 9.23451 19.8908 10.0156 20.2813C10.7966 20.6719 11.476 21.2389 12 21.9375" stroke="white" stroke-width="1.5" stroke-linecap="round" stroke-linejoin="round"/>
<path d="M7.5 9.9375C9.15685 9.9375 10.5 8.59435 10.5 6.9375C10.5 5.28065 9.15685 3.9375 7.5 3.9375C5.84315 3.9375 4.5 5.28065 4.5 6.9375C4.5 8.59435 5.84315 9.9375 7.5 9.9375Z" stroke="white" stroke-width="1.5" stroke-linecap="round" stroke-linejoin="round"/>
<path d="M3 12.1875C3.52395 11.4889 4.20336 10.9219 4.98442 10.5313C5.76549 10.1408 6.62675 9.9375 7.5 9.9375C8.37325 9.9375 9.23451 10.1408 10.0156 10.5313C10.7966 10.9219 11.476 11.4889 12 12.1875" stroke="white" stroke-width="1.5" stroke-linecap="round" stroke-linejoin="round"/>
<path d="M16.5 19.6875C18.1569 19.6875 19.5 18.3444 19.5 16.6875C19.5 15.0306 18.1569 13.6875 16.5 13.6875C14.8431 13.6875 13.5 15.0306 13.5 16.6875C13.5 18.3444 14.8431 19.6875 16.5 19.6875Z" stroke="white" stroke-width="1.5" stroke-linecap="round" stroke-linejoin="round"/>
<path d="M12 21.9375C12.524 21.2389 13.2034 20.6719 13.9844 20.2813C14.7655 19.8908 15.6267 19.6875 16.5 19.6875C17.3733 19.6875 18.2345 19.8908 19.0156 20.2813C19.7966 20.6719 20.476 21.2389 21 21.9375" stroke="white" stroke-width="1.5" stroke-linecap="round" stroke-linejoin="round"/>
<path d="M16.5 9.9375C18.1569 9.9375 19.5 8.59435 19.5 6.9375C19.5 5.28065 18.1569 3.9375 16.5 3.9375C14.8431 3.9375 13.5 5.28065 13.5 6.9375C13.5 8.59435 14.8431 9.9375 16.5 9.9375Z" stroke="white" stroke-width="1.5" stroke-linecap="round" stroke-linejoin="round"/>
<path d="M12 12.1875C12.524 11.4889 13.2034 10.9219 13.9844 10.5313C14.7655 10.1408 15.6267 9.9375 16.5 9.9375C17.3733 9.9375 18.2345 10.1408 19.0156 10.5313C19.7966 10.9219 20.476 11.4889 21 12.1875" stroke="white" stroke-width="1.5" stroke-linecap="round" stroke-linejoin="round"/>
</svg>
