<svg width="24" height="25" viewBox="0 0 24 25" fill="none" xmlns="http://www.w3.org/2000/svg">
<circle cx="12" cy="12.5" r="12" fill="#B21D1D"/>
<path d="M17.5 8H6.5" stroke="white" stroke-width="1.5" stroke-linecap="round" stroke-linejoin="round"/>
<path d="M10.5 11V15" stroke="white" stroke-width="1.5" stroke-linecap="round" stroke-linejoin="round"/>
<path d="M13.5 11V15" stroke="white" stroke-width="1.5" stroke-linecap="round" stroke-linejoin="round"/>
<path d="M16.5 8V17.5C16.5 17.6326 16.4473 17.7598 16.3536 17.8536C16.2598 17.9473 16.1326 18 16 18H8C7.86739 18 7.74021 17.9473 7.64645 17.8536C7.55268 17.7598 7.5 17.6326 7.5 17.5V8" stroke="white" stroke-width="1.5" stroke-linecap="round" stroke-linejoin="round"/>
<path d="M14.5 8V7C14.5 6.73478 14.3946 6.48043 14.2071 6.29289C14.0196 6.10536 13.7652 6 13.5 6H10.5C10.2348 6 9.98043 6.10536 9.79289 6.29289C9.60536 6.48043 9.5 6.73478 9.5 7V8" stroke="white" stroke-width="1.5" stroke-linecap="round" stroke-linejoin="round"/>
</svg>
