<svg width="16" height="18" viewBox="0 0 16 18" fill="none" xmlns="http://www.w3.org/2000/svg">
<path d="M12.4144 4.55035C12.04 4.1659 11.5324 3.94961 11.003 3.94889C10.4735 3.94817 9.9654 4.16308 9.59 4.5465L8.86187 5.33025C8.76875 5.41964 8.6459 5.46913 8.51844 5.4686C8.39097 5.46807 8.26852 5.41757 8.1761 5.32741C8.08368 5.23725 8.02828 5.11424 8.02123 4.98353C8.01417 4.85282 8.05598 4.72428 8.13813 4.62417L8.87062 3.83529C8.87317 3.83235 8.87589 3.82956 8.87875 3.82694C9.44291 3.2569 10.2035 2.9389 10.9949 2.94221C11.7864 2.94552 12.5444 3.26987 13.104 3.84461C13.6637 4.41935 13.9795 5.19792 13.9827 6.01072C13.9859 6.82352 13.6763 7.6047 13.1213 8.1841C13.1187 8.18705 13.116 8.18983 13.1131 8.19245L12.345 8.94475C12.2475 9.02911 12.1224 9.07205 11.9951 9.06481C11.8678 9.05756 11.7481 9.00066 11.6603 8.90574C11.5725 8.81083 11.5233 8.68506 11.5228 8.55415C11.5223 8.42324 11.5705 8.29708 11.6575 8.20144L12.4206 7.45363C12.7944 7.06764 13.0037 6.54504 13.0025 6.00066C13.0013 5.45629 12.7898 4.93465 12.4144 4.55035ZM7.13812 12.8378L6.41 13.6216C6.03312 13.9975 5.52735 14.206 5.00199 14.2021C4.47664 14.1981 3.97389 13.982 3.60239 13.6005C3.2309 13.219 3.0205 12.7026 3.01666 12.1631C3.01282 11.6235 3.21585 11.1041 3.58188 10.717L4.345 9.96921C4.43204 9.87357 4.48022 9.7474 4.47971 9.61649C4.47919 9.48558 4.43002 9.35981 4.34223 9.2649C4.25444 9.16998 4.13467 9.11309 4.0074 9.10584C3.88013 9.09859 3.75497 9.14153 3.6575 9.2259L2.88687 9.97819C2.88401 9.98081 2.8813 9.9836 2.87875 9.98654C2.32371 10.5659 2.01408 11.3471 2.0173 12.1599C2.02052 12.9727 2.33634 13.7513 2.89596 14.326C3.45557 14.9008 4.21365 15.2251 5.00506 15.2284C5.79647 15.2317 6.55709 14.9137 7.12125 14.3437C7.12411 14.3411 7.12683 14.3383 7.12937 14.3354L7.86188 13.5465C7.91167 13.4987 7.95143 13.4409 7.9787 13.3768C8.00597 13.3126 8.02018 13.2434 8.02045 13.1734C8.02073 13.1034 8.00707 13.0341 7.9803 12.9697C7.95354 12.9053 7.91424 12.8472 7.86482 12.799C7.8154 12.7508 7.7569 12.7135 7.69292 12.6893C7.62894 12.6652 7.56083 12.6547 7.49277 12.6586C7.42471 12.6625 7.35814 12.6806 7.29716 12.7119C7.23617 12.7431 7.18205 12.7869 7.13812 12.8404V12.8378ZM13.5 10.6246H12C11.8674 10.6246 11.7402 10.6787 11.6464 10.775C11.5527 10.8713 11.5 11.0019 11.5 11.1381C11.5 11.2743 11.5527 11.4049 11.6464 11.5012C11.7402 11.5975 11.8674 11.6516 12 11.6516H13.5C13.6326 11.6516 13.7598 11.5975 13.8536 11.5012C13.9473 11.4049 14 11.2743 14 11.1381C14 11.0019 13.9473 10.8713 13.8536 10.775C13.7598 10.6787 13.6326 10.6246 13.5 10.6246ZM2.5 7.5435H4C4.13261 7.5435 4.25979 7.48939 4.35355 7.39309C4.44732 7.29679 4.5 7.16618 4.5 7.02998C4.5 6.89379 4.44732 6.76318 4.35355 6.66687C4.25979 6.57057 4.13261 6.51647 4 6.51647H2.5C2.36739 6.51647 2.24021 6.57057 2.14645 6.66687C2.05268 6.76318 2 6.89379 2 7.02998C2 7.16618 2.05268 7.29679 2.14645 7.39309C2.24021 7.48939 2.36739 7.5435 2.5 7.5435ZM10 12.6786C9.86739 12.6786 9.74021 12.7327 9.64645 12.829C9.55268 12.9253 9.5 13.056 9.5 13.1921V14.7327C9.5 14.8689 9.55268 14.9995 9.64645 15.0958C9.74021 15.1921 9.86739 15.2462 10 15.2462C10.1326 15.2462 10.2598 15.1921 10.3536 15.0958C10.4473 14.9995 10.5 14.8689 10.5 14.7327V13.1921C10.5 13.056 10.4473 12.9253 10.3536 12.829C10.2598 12.7327 10.1326 12.6786 10 12.6786ZM6 5.48944C6.13261 5.48944 6.25979 5.43534 6.35355 5.33904C6.44732 5.24274 6.5 5.11212 6.5 4.97593V3.43539C6.5 3.2992 6.44732 3.16858 6.35355 3.07228C6.25979 2.97598 6.13261 2.92188 6 2.92188C5.86739 2.92188 5.74021 2.97598 5.64645 3.07228C5.55268 3.16858 5.5 3.2992 5.5 3.43539V4.97593C5.5 5.11212 5.55268 5.24274 5.64645 5.33904C5.74021 5.43534 5.86739 5.48944 6 5.48944Z" fill="#B61922"/>
</svg>
