<svg width="8" height="8" viewBox="0 0 8 8" fill="none" xmlns="http://www.w3.org/2000/svg">
<g clip-path="url(#clip0_0_288)">
<path d="M7 6.33333L1 6.33333C0.939253 6.33314 0.879708 6.31639 0.827774 6.28487C0.775841 6.25336 0.733486 6.20828 0.705268 6.15448C0.67705 6.10069 0.664038 6.04021 0.667632 5.97957C0.671227 5.91893 0.691291 5.86042 0.725666 5.81033L3.72567 1.477C3.85 1.29733 4.14933 1.29733 4.274 1.477L7.274 5.81033C7.30873 5.86031 7.32909 5.91886 7.33288 5.9796C7.33667 6.04034 7.32374 6.10096 7.2955 6.15487C7.26725 6.20878 7.22477 6.25392 7.17268 6.28538C7.12058 6.31684 7.06086 6.33343 7 6.33333Z" fill="black"/>
</g>
<defs>
<clipPath id="clip0_0_288">
<rect width="8" height="8" fill="white" transform="matrix(-1 0 0 1 8 0)"/>
</clipPath>
</defs>
</svg>
