<svg width="16" height="16" viewBox="0 0 16 16" fill="none" xmlns="http://www.w3.org/2000/svg">
<path d="M2.83742 11.0616C2.09298 9.80558 1.83258 8.32104 2.10512 6.88666C2.37765 5.45229 3.16438 4.16671 4.3176 3.27128C5.47082 2.37584 6.91123 1.93214 8.36841 2.02346C9.82559 2.11478 11.1993 2.73485 12.2317 3.76725C13.2641 4.79966 13.8842 6.1734 13.9755 7.63058C14.0669 9.08777 13.6232 10.5282 12.7277 11.6814C11.8323 12.8346 10.5467 13.6213 9.11233 13.8939C7.67795 14.1664 6.19342 13.906 4.93742 13.1616L2.86242 13.7491C2.77741 13.7739 2.68727 13.7755 2.60146 13.7535C2.51565 13.7316 2.43732 13.6869 2.37469 13.6243C2.31206 13.5617 2.26742 13.4833 2.24547 13.3975C2.22352 13.3117 2.22506 13.2216 2.24992 13.1366L2.83742 11.0616Z" stroke="#3F3E3E" stroke-width="1.5" stroke-linecap="round" stroke-linejoin="round"/>
<path d="M9.50627 11.5C8.84837 11.5017 8.19664 11.3733 7.58851 11.1223C6.98038 10.8713 6.42784 10.5026 5.96264 10.0374C5.49743 9.57219 5.12874 9.01965 4.87774 8.41152C4.62673 7.80339 4.49837 7.15166 4.50002 6.49376C4.50167 6.03072 4.68677 5.5872 5.01478 5.26037C5.34279 4.93353 5.78697 4.75001 6.25002 4.75001V4.75001C6.32641 4.7494 6.40156 4.7694 6.46755 4.80789C6.53355 4.84639 6.58794 4.90196 6.62502 4.96876L7.35627 6.24376C7.39975 6.32127 7.42207 6.40886 7.42097 6.49773C7.41987 6.58659 7.3954 6.6736 7.35002 6.75001L6.76252 7.73126C7.06344 8.4007 7.59933 8.93659 8.26877 9.23751L9.25002 8.65001C9.32643 8.60463 9.41344 8.58016 9.5023 8.57906C9.59117 8.57796 9.67876 8.60028 9.75627 8.64376L11.0313 9.37501C11.0981 9.41209 11.1536 9.46648 11.1921 9.53248C11.2306 9.59847 11.2506 9.67362 11.25 9.75001C11.2484 10.2126 11.0643 10.6558 10.7379 10.9834C10.4114 11.3111 9.9688 11.4967 9.50627 11.5V11.5Z" stroke="#3F3E3E" stroke-width="1.5" stroke-linecap="round" stroke-linejoin="round"/>
</svg>
